<svg xmlns="http://www.w3.org/2000/svg" xmlns:xlink="http://www.w3.org/1999/xlink" viewBox="0 0 500 500"><style>path.bg{fill:#003a70}path.stroke{fill:transparent}@media (prefers-color-scheme:dark){path.bg{fill:transparent}path.stroke{fill:#003a70}}</style><path class="bg" d="M0 .01h499.98V500H0z"></path><path fill="#fff" d="M323.94 144.19c-24.57 0-43.26 17.44-43.26 47.88 0 30.25 18.44 47.75 43.26 47.75 23.5 0 38-15.81 40.13-33.13h-19.32c-1.87 10.13-9.87 16.2-20.5 16.2-14.37 0-24.19-10.63-24.19-30.82 0-19.76 9.69-30.95 24.25-30.95 10.63 0 18.63 6 20.38 16.13h19.32c-2.75-20.94-18.88-33.07-40.07-33.07zm-196.87 1.25v93.13h19.06v-35.75h38.07v-15.56h-38.07v-26h42.2v-15.82zm74.34 0v15.81h28.5v77.32h19.13v-77.32h28.44v-15.81zM41.79 254.7v62.96c0 21.23 15.88 35.42 40.04 35.42 23.96 0 40.04-14.2 40.04-35.42V254.7h-19.92v61.33c0 11.33-7.94 19.47-20.12 19.47s-20.18-8.14-20.18-19.47V254.7zm96.27 0v97.02h20.32v-44.6c0-5.74-.59-16.15-1.3-27.88 5.99 12.12 9.57 19.21 14.97 27.94l27.87 44.53h22.2V254.7h-20.31v46.55c0 6.38.52 16.8 1.24 26.3a171.5 171.5 0 0 0-12.18-23.76l-30.67-49.1zm96.28 0v97.02h19.86V254.7zm140.55 0v97.02h20.32v-44.6c0-5.74-.59-16.15-1.3-27.88 5.99 12.12 9.57 19.21 14.97 27.94l27.87 44.53h22.2V254.7h-20.31v46.55c0 6.38.52 16.8 1.24 26.3a171.5 171.5 0 0 0-12.18-23.76l-30.67-49.1z"></path><path class="stroke" d="M323.6 142.81c-12.78 0-24.21 4.58-32.37 13.2-8.17 8.6-13 21.15-13 36.8 0 15.57 4.77 28.09 12.9 36.7 8.13 8.6 19.57 13.19 32.48 13.19 24.46 0 40-16.68 42.24-35a2.13 2.13 0 0 0-2.11-2.38h-19.32a2.13 2.13 0 0 0-2.09 1.74c-1.7 9.21-8.59 14.45-18.4 14.45-6.67 0-12-2.37-15.85-7.06-3.85-4.7-6.22-11.88-6.22-21.63 0-9.53 2.34-16.76 6.2-21.54 3.84-4.79 9.19-7.28 15.92-7.28 9.83 0 16.7 5.17 18.29 14.37a2.13 2.13 0 0 0 2.1 1.76h19.3a2.13 2.13 0 0 0 2.11-2.4c-2.87-21.9-20.17-34.92-42.17-34.92zm-196.86 1.25a2.13 2.13 0 0 0-2.13 2.13v93.14a2.13 2.13 0 0 0 2.13 2.12h19.06a2.13 2.13 0 0 0 2.13-2.12V205.7h35.94a2.13 2.13 0 0 0 2.12-2.13v-15.56a2.13 2.13 0 0 0-2.12-2.13h-35.94v-21.75h40.06a2.13 2.13 0 0 0 2.13-2.13v-15.8a2.13 2.13 0 0 0-2.13-2.13zm74.34 0a2.13 2.13 0 0 0-2.13 2.13V162a2.13 2.13 0 0 0 2.13 2.13h26.37v75.2a2.13 2.13 0 0 0 2.13 2.12h19.13a2.13 2.13 0 0 0 2.12-2.13v-75.2h26.32a2.13 2.13 0 0 0 2.12-2.12v-15.8a2.13 2.13 0 0 0-2.12-2.13zm122.53 3c19.55 0 34.1 10.34 37.58 28.82h-15.11c-2.54-10.02-11.3-16.13-22.1-16.13-7.82 0-14.6 3.1-19.24 8.86-4.63 5.75-7.13 13.99-7.13 24.21 0 10.44 2.53 18.66 7.18 24.33 4.65 5.67 11.42 8.61 19.13 8.61 10.82 0 19.56-6.17 22.2-16.19h15.13c-2.96 15.36-16.2 28.88-37.64 28.88-11.9 0-22.1-4.16-29.39-11.87-7.3-7.71-11.74-19.06-11.74-33.76 0-14.79 4.5-26.17 11.83-33.9 7.33-7.72 17.52-11.86 29.3-11.86zm-194.75 1.25h57.01v11.57H145.8a2.13 2.13 0 0 0-2.12 2.12v26a2.13 2.13 0 0 0 2.12 2.13h35.94v11.32H145.8a2.13 2.13 0 0 0-2.12 2.12v33.63h-14.82zm74.34 0h71.83v11.57H248.7a2.13 2.13 0 0 0-2.13 2.12v75.2H231.7V162a2.13 2.13 0 0 0-2.13-2.12H203.2zM41.46 253.34a2.13 2.13 0 0 0-2.12 2.12v62.96c0 11.15 4.23 20.66 11.67 27.26 7.45 6.6 18 10.29 30.5 10.29 12.4 0 22.94-3.68 30.4-10.28 7.47-6.6 11.76-16.12 11.76-27.27v-62.96a2.13 2.13 0 0 0-2.12-2.13h-19.93a2.13 2.13 0 0 0-2.12 2.13v61.33c0 5.17-1.78 9.44-4.86 12.47s-7.52 4.88-13.14 4.88c-11.23 0-18.06-7.02-18.06-17.35v-61.33a2.13 2.13 0 0 0-2.12-2.13zm96.28 0a2.13 2.13 0 0 0-2.13 2.12v97.02a2.13 2.13 0 0 0 2.13 2.12h20.31a2.13 2.13 0 0 0 2.13-2.12v-44.6c0-4.07-.28-10.3-.7-17.63a236.51 236.51 0 0 0 10.44 18.81l27.87 44.54a2.13 2.13 0 0 0 1.8 1h22.2a2.13 2.13 0 0 0 2.13-2.12v-97.02a2.13 2.13 0 0 0-2.12-2.13h-20.32a2.13 2.13 0 0 0-2.12 2.13V302c0 3.91.19 9.24.5 14.94a179.9 179.9 0 0 0-7.5-13.5 2.13 2.13 0 0 0-.01-.02l-30.67-49.1a2.13 2.13 0 0 0-1.8-1zm96.27 0a2.13 2.13 0 0 0-2.12 2.12v97.02a2.13 2.13 0 0 0 2.12 2.12h19.86a2.13 2.13 0 0 0 2.13-2.12v-97.02a2.13 2.13 0 0 0-2.13-2.12zm140.56 0a2.13 2.13 0 0 0-2.13 2.12v97.02a2.13 2.13 0 0 0 2.13 2.12h20.31a2.13 2.13 0 0 0 2.13-2.12v-44.6c0-4.07-.29-10.3-.7-17.63a236.51 236.51 0 0 0 10.44 18.81l27.87 44.54a2.13 2.13 0 0 0 1.8 1h22.2a2.13 2.13 0 0 0 2.13-2.12v-97.02a2.13 2.13 0 0 0-2.12-2.13H438.3a2.13 2.13 0 0 0-2.12 2.13V302c0 3.91.19 9.24.5 14.94-2.59-5.18-5.1-9.56-7.5-13.5a2.13 2.13 0 0 0-.02-.02l-30.66-49.1a2.13 2.13 0 0 0-1.8-1zm-330.99 4.25H59.2v59.2c0 12.34 9.19 21.6 22.31 21.6 6.56 0 12.18-2.23 16.12-6.1s6.13-9.33 6.13-15.5v-59.2h15.67v60.83c0 10.08-3.75 18.28-10.32 24.08-6.56 5.8-16.04 9.22-27.6 9.22-11.66 0-21.13-3.42-27.67-9.22-6.54-5.8-10.25-14-10.25-24.08zm96.28 0h18.84l30.03 48.08a168.7 168.7 0 0 1 12.03 23.47 2.13 2.13 0 0 0 4.08-.98 403.02 403.02 0 0 1-1.23-26.14v-44.44h16.06v92.77h-18.9l-27.24-43.53c-5.35-8.65-8.89-15.65-14.88-27.76a2.13 2.13 0 0 0-4.02 1.07c.71 11.72 1.3 22.16 1.3 27.74v42.48h-16.07zm96.28 0h15.6v92.76h-15.6zm140.55 0h18.83l30.04 48.08c3.8 6.26 7.84 13.5 12.03 23.47a2.13 2.13 0 0 0 4.08-.98 403.02 403.02 0 0 1-1.23-26.14v-44.44h16.06v92.77h-18.9l-27.24-43.53c-5.36-8.65-8.9-15.65-14.88-27.76a2.13 2.13 0 0 0-4.02 1.07c.71 11.72 1.3 22.16 1.3 27.74v42.48h-16.07z"></path><circle cx="314.73" cy="303.94" r="53.3" fill="#fff" stroke-width="1.5118"/><use transform="matrix(.35761 0 0 .35761 261.09 250.3)" fill="#003a70" href="ftc-logo-svgo.svg#seal" xlink:href="ftc-logo-svgo.svg#seal"/></svg>