<svg xmlns="http://www.w3.org/2000/svg" xmlns:xlink="http://www.w3.org/1999/xlink" viewBox="0 0 500 500"><style>path.bg{fill:#003a70}path.stroke{fill:transparent}@media (prefers-color-scheme:dark){path.bg{fill:transparent}path.stroke{fill:#003a70}}</style><path class="bg" d="M0 .01h499.98V500H0z"/><path fill="#fff" d="M324 144c-25 0-43 18-43 48s18 48 43 48c23 0 38-16 40-33h-19c-2 10-10 16-21 16-14 0-24-11-24-31s10-31 24-31c11 0 19 6 21 16h19c-3-21-19-33-40-33zm-197 1v94h19v-36h38v-16h-38v-26h42v-16zm74 0v16h29v78h19v-78h28v-16zM42 255v63c0 21 16 35 40 35s40-14 40-35v-63h-20v61c0 11-8 19-20 19s-20-8-20-19v-61zm96 0v97h20v-45l-1-28 15 28 28 45h22v-97h-20v46l1 27a172 172 0 0 0-12-24l-31-49zm96 0v97h20v-97zm141 0v97h20v-45l-1-28c6 12 9 19 15 28l28 45h22v-97h-20v46l1 27a172 172 0 0 0-12-24l-31-49z"/><path d="M324 143c-13 0-25 4-33 13s-13 21-13 37c0 15 5 28 13 37 8 8 20 13 33 13 24 0 40-17 42-35a2 2 0 0 0-2-3h-20a2 2 0 0 0-2 2c-1 9-8 15-18 15-7 0-12-3-16-8-4-4-6-11-6-21s2-17 6-22 9-7 16-7c10 0 17 5 18 14a2 2 0 0 0 2 2h20a2 2 0 0 0 2-2c-3-22-20-35-42-35zm-197 1a2 2 0 0 0-2 2v93a2 2 0 0 0 2 2h19a2 2 0 0 0 2-2v-33h36a2 2 0 0 0 2-2v-16a2 2 0 0 0-2-2h-36v-22h40a2 2 0 0 0 2-2v-16a2 2 0 0 0-2-2zm74 0a2 2 0 0 0-2 2v16a2 2 0 0 0 2 2h26v75a2 2 0 0 0 3 2h19a2 2 0 0 0 2-2v-75h26a2 2 0 0 0 2-2v-16a2 2 0 0 0-2-2zm123 3c19 0 34 10 37 29h-15c-2-10-11-16-22-16-8 0-15 3-19 9-5 5-7 14-7 24s2 18 7 24c4 6 11 9 19 9 11 0 19-6 22-16h15c-3 15-16 28-37 28-12 0-22-4-30-11-7-8-12-19-12-34s5-26 12-34c8-8 18-12 30-12zm-195 1h57v12h-40a2 2 0 0 0-2 2v26a2 2 0 0 0 2 2h36v11h-36a2 2 0 0 0-2 3v33h-15zm74 0h72v12h-26a2 2 0 0 0-2 2v75h-15v-75a2 2 0 0 0-2-2h-27zM41 253a2 2 0 0 0-2 2v63c0 12 5 21 12 28 7 6 18 10 31 10 12 0 22-4 30-10 7-7 12-16 12-28v-63a2 2 0 0 0-2-2h-20a2 2 0 0 0-2 2v62c0 5-2 9-5 12s-8 5-13 5c-12 0-19-7-19-17v-62a2 2 0 0 0-2-2zm97 0a2 2 0 0 0-2 2v97a2 2 0 0 0 2 3h20a2 2 0 0 0 2-3v-44l-1-18a237 237 0 0 0 11 19l28 45a2 2 0 0 0 2 1h22a2 2 0 0 0 2-3v-97a2 2 0 0 0-2-2h-21a2 2 0 0 0-2 2v47l1 15a180 180 0 0 0-8-14l-30-49a2 2 0 0 0-2-1zm96 0a2 2 0 0 0-2 2v97a2 2 0 0 0 2 3h20a2 2 0 0 0 2-3v-97a2 2 0 0 0-2-2zm141 0a2 2 0 0 0-3 2v97a2 2 0 0 0 3 3h20a2 2 0 0 0 2-3v-44l-1-18a237 237 0 0 0 11 19l28 45a2 2 0 0 0 1 1h23a2 2 0 0 0 2-3v-97a2 2 0 0 0-2-2h-21a2 2 0 0 0-2 2v47l1 15-8-14-30-49a2 2 0 0 0-2-1zm-331 5h15v59c0 12 9 21 23 21 6 0 12-2 16-6s6-9 6-15v-59h15v60c0 11-3 19-10 25-6 5-16 9-27 9-12 0-22-4-28-9-7-6-10-14-10-25zm96 0h19l30 48a169 169 0 0 1 12 23 2 2 0 0 0 4-1 403 403 0 0 1-1-26v-44h16v92h-19l-27-43c-6-9-9-16-15-28a2 2 0 0 0-4 1l1 28v42h-16zm96 0h16v92h-16zm141 0h19l30 48 12 23a2 2 0 0 0 4-1 403 403 0 0 1-2-26v-44h16v92h-18l-28-43-15-28a2 2 0 0 0-4 1l2 28v42h-16z" class="stroke"/><circle cx="314.7" cy="303.9" r="53.3" fill="#fff"/><use xlink:href="ftc-logo-svgo.svg#seal" fill="#003a70" href="ftc-logo-svgo.svg#seal" transform="matrix(.35761 0 0 .35761 261.09 250.3)"/></svg>
