<svg xmlns="http://www.w3.org/2000/svg" viewBox="0 0 500 500"><path fill="#003a70" d="M0 .01h499.98V500H0z"/><path fill="#fff" d="M325.7 142.62c-26.6 0-42.82 18.05-42.82 47.8s16.4 49.37 42.82 49.37c26.62 0 36.22-16.03 38.5-34.01h-19.99c-1.76 9.87-8.18 18.31-19.1 18.31-13.2 0-21.25-9.86-21.25-33.4 0-23.35 8.04-32.37 21.25-32.37 10.92 0 17.34 7.05 19.1 16.93h20c-1.9-18.57-17.19-32.63-38.5-32.63m-51.13 1.3H198.9v17h28.59v77.56h19.15v-77.56h27.92zm-87.89 0h-64.32v94.56h19.2v-39.23h39.05v-15.63h-39.04v-23.74h45.05zm130.68 108a51.19 51.19 0 1 0 0 102.38 51.19 51.19 0 0 0 0-102.38M60.5 255.83l-19.41.02v57.87c0 23.53 10.14 37.99 37.8 37.99 27.53 0 37.85-14.39 37.85-37.34v-58.53H97.46v59.3c0 14.26-7.7 20.35-18.56 20.35-10.92 0-18.4-6.22-18.4-20.34zm75.27.02v94.55h19.03v-65.06l44.92 65.06h17.2v-94.55h-19.1v62.57l-43.15-62.57zm102.27 0v94.55h19.03v-94.55zm139.67 0v94.55h19.04v-65.06l44.91 65.06h17.2v-94.55h-19.1v62.57l-43.14-62.57zm-60.36 5.26.8.55q3.05 2.13 6 3.96a38 38 0 0 1 17.38 8q3.75.96 6.85.73l1.4-.12.08 1.41a89 89 0 0 1 .1 7.71 38 38 0 0 1 5.5 19.77 38 38 0 0 1-35.22 37.98q-1.09.88-2.05 1.6l-.84.65-.84-.65q-.96-.72-2.06-1.6a38 38 0 0 1-35.19-37.98c0-7.24 2-14 5.48-19.75q-.12-3.73.1-7.73l.07-1.4 1.41.1q3.1.24 6.87-.71a38 38 0 0 1 17.38-8.03q2.95-1.81 6-3.94zm0 2.9c-11.15 7.67-21.4 12.54-29.95 12.5-1.57 36.67 19.4 55.5 29.95 63.66 10.55-8.16 31.52-27 29.95-63.66-8.55.04-18.8-4.83-29.95-12.5m-.25 8.55h.47v2.24l1.34 1.1.1 5.07 12.2 1.25c0-.04.05-.42.22-.56l.01-.02h.03l.01-.02.04-.01v-.01h.08l.03.01v.01l.05.02v.03h.01l.02.02c.12.18.15.56.16.6l1.11.11.03.49-.89.14c1.62 4.6 2.73 8.17 4.02 12.07h.48s-.62 3.7-5.16 3.66c-4.36-.03-4.86-3.66-4.86-3.66h.43l3.87-11.87-11.82 1.87.31 15.03c0 1.22 2.43 1.07 4.43 1.16.17 1.21.6 3.89.08 4.38h-13.1c-.51-.5-.1-3.17.06-4.38 2-.1 4.43.06 4.43-1.16l.31-15.03-11.99-1.9 3.88 11.9h.4s-.5 3.62-4.85 3.66c-4.54.04-5.15-3.66-5.15-3.66h.48c1.28-3.9 2.4-7.5 4.03-12.1l-.72-.11.01-.49.94-.1s.03-.42.17-.6v-.02l.01-.02.04-.03.04-.02.02-.01h.02q.06 0 .11.03h.02v.01c.19.16.23.6.23.6v.01l12.4-1.28.09-5.06 1.32-1.11zm-14.59 13-3.23 9.54h3.44q-.18-4.75-.2-9.54m29.47 0c-.04 3.19-.08 6.38-.2 9.54h3.45zm-28.52.7q-.03 4.43-.24 8.84h3.74c-1.2-2.92-2.43-5.84-3.5-8.83m27.57 0c-1.07 3-2.3 5.92-3.49 8.84h3.74q-.22-4.42-.25-8.83m11.5 19.44h.04v.01c1.4.21-5.4 9.07-12.33 14.02-2.94 2.1-3.94 1.69-5.85 1.87a8.7 8.7 0 0 0-4.3 1.37c-.42 2.51-1.19 3.52-2.64 3.5-1.42 0-2.71-1.78-2.48-3.69-1.04-.7-2.62-1.06-4.53-1.3-1.91-.25-5.01-1.29-6.42-2.33-3.99-2.95-11.27-10.95-11.54-13.17l.39-.27c6.12 4.75 14.8 6.1 17.87 6.3 1.64.1 2.22.95 2.22 1.73 0 .73-.62 1.77-1.11 2.14-1.95 1.47.45 1.21 1.57.85.68-.22 1.22.21 1.55.52.11-1.12.26-4.6 2.7-4.6.8 0 2.47.07 2.55 3.69.01.33.07.98.07.98s.67-.86 1.58-.59c.87.27 2.24.47 2.32.08.07-.4-.69-.77-1.29-1.63a2.6 2.6 0 0 1-.52-1.65c.06-.92 1.42-1.48 2.05-1.52 5.46-.34 12.3-2.43 16.27-5.07.48-.37 1.57-1.19 1.84-1.24"/></svg>
