<svg xmlns="http://www.w3.org/2000/svg" viewBox="0 0 100 14.889"><rect width="100%" height="100%" fill="#f2f3f4"/><path d="M79.908 0a.186.186 0 0 0-.16.1.183.183 0 0 0-.03-.038.182.182 0 0 0-.134-.047.186.186 0 0 0-.156.1.182.182 0 0 0-.17-.076.175.175 0 0 0-.148.105.189.189 0 0 0-.17-.07.179.179 0 0 0-.147.115.19.19 0 0 0-.033-.031.184.184 0 0 0-.143-.035.18.18 0 0 0-.138.12.182.182 0 0 0-.178-.057.177.177 0 0 0-.137.132.187.187 0 0 0-.18-.055.195.195 0 0 0-.13.139.185.185 0 0 0-.18-.041.194.194 0 0 0-.115.098.127.127 0 0 0-.012.039.177.177 0 0 0-.18-.031.178.178 0 0 0-.103.09.192.192 0 0 0-.016.054.182.182 0 0 0-.187-.03.2.2 0 0 0-.11.155.19.19 0 0 0-.185-.022.195.195 0 0 0-.094.104.18.18 0 0 0-.01.055.181.181 0 0 0-.185-.014.194.194 0 0 0-.096.162.18.18 0 0 0-.185-.004.185.185 0 0 0-.094.162.18.18 0 0 0-.186.008.191.191 0 0 0-.082.17.196.196 0 0 0-.19.012.186.186 0 0 0-.073.175.18.18 0 0 0-.186.018.186.186 0 0 0-.07.121c-.003.018 0 .034.002.05a.186.186 0 0 0-.248.208.177.177 0 0 0-.174.037.183.183 0 0 0-.059.188.192.192 0 0 0-.181.042.192.192 0 0 0-.041.182.174.174 0 0 0-.18.057.175.175 0 0 0-.037.18.175.175 0 0 0-.178.062.18.18 0 0 0-.03.184.18.18 0 0 0-.167.07.185.185 0 0 0-.041.14.172.172 0 0 0 .015.047.188.188 0 0 0-.056 0 .17.17 0 0 0-.112.077.189.189 0 0 0-.013.187.184.184 0 0 0-.166.08.185.185 0 0 0-.004.191.181.181 0 0 0-.158.28.174.174 0 0 0-.16.094.193.193 0 0 0-.014.146c.005.017.014.03.023.045a.176.176 0 0 0-.056.012.16.16 0 0 0-.092.09.19.19 0 0 0 .017.189.185.185 0 0 0-.152.11.189.189 0 0 0 .03.187.18.18 0 0 0-.143.115.185.185 0 0 0 .006.147.168.168 0 0 0 .027.039.178.178 0 0 0-.139.123.208.208 0 0 0 .045.183.175.175 0 0 0-.133.127.173.173 0 0 0 .051.182.18.18 0 0 0-.125.137.18.18 0 0 0 .059.18.188.188 0 0 0-.051.023.168.168 0 0 0-.068.115.18.18 0 0 0 .064.176.175.175 0 0 0-.113.142.189.189 0 0 0 .07.176.184.184 0 0 0-.105.147.193.193 0 0 0 .08.17.173.173 0 0 0-.035.023.2.2 0 0 0-.065.14.18.18 0 0 0 .086.157.183.183 0 0 0-.096.158c0 .066.04.126.098.158a.185.185 0 0 0-.084.166.18.18 0 0 0 .104.154.174.174 0 0 0-.078.166.173.173 0 0 0 .062.127.16.16 0 0 0 .043.026.19.19 0 0 0-.004.293c.014.01.03.019.047.025a.19.19 0 0 0-.035.037.183.183 0 0 0 .09.277.187.187 0 0 0-.055.178.176.176 0 0 0 .129.137.184.184 0 0 0-.055.178.201.201 0 0 0 .102.119c.012.006.025.01.039.014a.173.173 0 0 0-.032.04.184.184 0 0 0-.01.14.18.18 0 0 0 .092.109c.015.007.03.01.045.013a.18.18 0 0 0-.033.184.18.18 0 0 0 .145.12.188.188 0 0 0-.028.042.183.183 0 0 0 0 .145.2.2 0 0 0 .155.109.18.18 0 0 0-.022.18.192.192 0 0 0 .154.109.186.186 0 0 0-.01.186c.037.06.099.094.163.095a.182.182 0 0 0 .154.278h.004a.173.173 0 0 0-.018.046.178.178 0 0 0 .024.141.195.195 0 0 0 .156.084l.014-.002a.19.19 0 0 0 .013.186.188.188 0 0 0 .155.078h.02a.154.154 0 0 0-.016.047.186.186 0 0 0 .207.209.18.18 0 0 0 .031.182.182.182 0 0 0 .178.06.173.173 0 0 0-.01.049.174.174 0 0 0 .05.127.178.178 0 0 0 .128.064h.011c.014 0 .028 0 .041-.004a.19.19 0 0 0 .045.18.192.192 0 0 0 .182.043.172.172 0 0 0 .055.18.182.182 0 0 0 .181.037.19.19 0 0 0-.004.056c.007.05.033.093.07.12a.17.17 0 0 0 .116.044l.01-.002a.176.176 0 0 0 .052-.011.184.184 0 0 0 .07.168.194.194 0 0 0 .145.04.18.18 0 0 0 .045-.013.192.192 0 0 0 .076.168.195.195 0 0 0 .19.012.18.18 0 0 0 .004.056.17.17 0 0 0 .078.11.18.18 0 0 0 .097.029.187.187 0 0 0 .09-.025.192.192 0 0 0 .09.164.194.194 0 0 0 .19-.004.174.174 0 0 0 .094.158.183.183 0 0 0 .085.021.2.2 0 0 0 .106-.03.166.166 0 0 0 .008.046.18.18 0 0 0 .093.102.19.19 0 0 0 .19-.018.216.216 0 0 0 .011.05.177.177 0 0 0 .098.102.198.198 0 0 0 .07.012.174.174 0 0 0 .117-.041.182.182 0 0 0 .18.154.19.19 0 0 0 .078-.015.187.187 0 0 0 .045-.03.18.18 0 0 0 .12.133.2.2 0 0 0 .058.01.193.193 0 0 0 .127-.049.19.19 0 0 0 .018.047.172.172 0 0 0 .156.092.182.182 0 0 0 .137-.057.173.173 0 0 0 .132.125.179.179 0 0 0 .18-.057.171.171 0 0 0 .025.047.167.167 0 0 0 .114.07.185.185 0 0 0 .178-.062c.023.06.077.103.146.112l.021.001c.061 0 .117-.03.15-.076a.187.187 0 0 0 .15.11h.013a.186.186 0 0 0 .158-.082.16.16 0 0 0 .03.04.169.169 0 0 0 .126.057h.012a.171.171 0 0 0 .117-.047.192.192 0 0 0 .033-.04c.03.059.091.101.16.101a.207.207 0 0 0 .157-.102.174.174 0 0 0 .027.038c.034.032.08.05.13.05h.01a.186.186 0 0 0 .153-.103.17.17 0 0 0 .031.037.186.186 0 0 0 .118.043l.021-.002a.177.177 0 0 0 .149-.11.195.195 0 0 0 .152.077l.021-.002a.18.18 0 0 0 .123-.072.163.163 0 0 0 .022-.041.18.18 0 0 0 .14.066c.011 0 .023 0 .034-.002a.175.175 0 0 0 .14-.123.184.184 0 0 0 .137.062c.014 0 .028 0 .041-.003a.188.188 0 0 0 .135-.131.172.172 0 0 0 .182.05.18.18 0 0 0 .113-.086.182.182 0 0 0 .017-.048.188.188 0 0 0 .182.04.19.19 0 0 0 .111-.099.18.18 0 0 0 .012-.039.174.174 0 0 0 .18.035.192.192 0 0 0 .11-.103.169.169 0 0 0 .01-.043c.016.012.031.024.05.03a.17.17 0 0 0 .06.013c.025 0 .05-.007.074-.018a.197.197 0 0 0 .106-.113c.004-.012.004-.024.006-.035a.185.185 0 0 0 .105.033.193.193 0 0 0 .08-.018.18.18 0 0 0 .096-.103.178.178 0 0 0 .008-.051.19.19 0 0 0 .103.031.18.18 0 0 0 .086-.021.194.194 0 0 0 .092-.117.146.146 0 0 0 .004-.041.19.19 0 0 0 .094.023.178.178 0 0 0 .182-.186.208.208 0 0 0 .094.023.188.188 0 0 0 .095-.025.197.197 0 0 0 .082-.171.186.186 0 0 0 .185-.012.18.18 0 0 0 .076-.174.19.19 0 0 0 .187-.025.176.176 0 0 0 .067-.168.19.19 0 0 0 .063.011.213.213 0 0 0 .125-.043.2.2 0 0 0 .057-.18.181.181 0 0 0 .18-.037.178.178 0 0 0 .062-.126.185.185 0 0 0-.004-.055.172.172 0 0 0 .049.008h.004a.168.168 0 0 0 .12-.053.183.183 0 0 0 .047-.184.175.175 0 0 0 .05.008h.013a.17.17 0 0 0 .115-.058.182.182 0 0 0 .041-.182c.01.002.021.002.032.002h.021a.182.182 0 0 0 .125-.07.183.183 0 0 0 .027-.18l.028.002.021-.002a.178.178 0 0 0 .123-.068.19.19 0 0 0 .037-.143.174.174 0 0 0-.015-.047l.017.002a.19.19 0 0 0 .155-.08.184.184 0 0 0 .011-.183h.012c.06 0 .12-.03.154-.084a.189.189 0 0 0 .006-.19h.004a.176.176 0 0 0 .154-.09.194.194 0 0 0-.004-.19.19.19 0 0 0 .165-.097.2.2 0 0 0 .01-.14.182.182 0 0 0-.024-.05.177.177 0 0 0 .15-.1.19.19 0 0 0-.02-.19.193.193 0 0 0 .155-.11.189.189 0 0 0-.004-.146.185.185 0 0 0-.027-.041.192.192 0 0 0 .146-.117.198.198 0 0 0-.039-.186.175.175 0 0 0 .137-.121.19.19 0 0 0-.041-.184.19.19 0 0 0 .137-.129.19.19 0 0 0-.057-.181.192.192 0 0 0 .13-.137.193.193 0 0 0-.06-.178.179.179 0 0 0 .12-.138.18.18 0 0 0-.067-.176.177.177 0 0 0 .111-.143.194.194 0 0 0-.07-.175.19.19 0 0 0 .045-.028.185.185 0 0 0-.021-.291.187.187 0 0 0 .101-.156.164.164 0 0 0-.037-.125.183.183 0 0 0-.049-.04.184.184 0 0 0 .096-.157c0-.07-.04-.128-.098-.158a.182.182 0 0 0 .082-.163.175.175 0 0 0-.097-.158.197.197 0 0 0 .078-.172.183.183 0 0 0-.108-.146.18.18 0 0 0 .069-.174.176.176 0 0 0-.118-.144.181.181 0 0 0-.054-.315.176.176 0 0 0 .057-.176.175.175 0 0 0-.128-.136.19.19 0 0 0 .053-.184.195.195 0 0 0-.09-.111.17.17 0 0 0-.049-.018.18.18 0 0 0 .04-.178.19.19 0 0 0-.096-.115c-.013-.006-.027-.009-.041-.012a.176.176 0 0 0 .033-.18.176.176 0 0 0-.094-.107.156.156 0 0 0-.049-.013.181.181 0 0 0 .028-.186.213.213 0 0 0-.102-.098.18.18 0 0 0-.053-.013.191.191 0 0 0 .022-.184.181.181 0 0 0-.158-.105.189.189 0 0 0 .011-.19.199.199 0 0 0-.158-.095.19.19 0 0 0 .002-.188.188.188 0 0 0-.164-.086.18.18 0 0 0-.006-.191.189.189 0 0 0-.17-.08.19.19 0 0 0-.013-.188.19.19 0 0 0-.174-.074.191.191 0 0 0-.023-.187.176.176 0 0 0-.17-.067.204.204 0 0 0-.032-.19.193.193 0 0 0-.18-.054.191.191 0 0 0-.035-.186.19.19 0 0 0-.183-.052c.005-.018.01-.035.01-.053a.169.169 0 0 0-.055-.121.17.17 0 0 0-.178-.05.174.174 0 0 0-.055-.176.175.175 0 0 0-.183-.04.19.19 0 0 0-.066-.18.185.185 0 0 0-.182-.025.176.176 0 0 0-.066-.172.18.18 0 0 0-.19-.021.179.179 0 0 0-.072-.166.195.195 0 0 0-.149-.034.17.17 0 0 0-.043.016.182.182 0 0 0-.271-.172.182.182 0 0 0-.09-.16.193.193 0 0 0-.19.006.193.193 0 0 0-.099-.164.202.202 0 0 0-.188.012.182.182 0 0 0-.103-.15.184.184 0 0 0-.19.02.177.177 0 0 0-.107-.15.18.18 0 0 0-.19.026.172.172 0 0 0-.113-.139.192.192 0 0 0-.187.031.178.178 0 0 0-.121-.137.19.19 0 0 0-.149.016.187.187 0 0 0-.037.03.189.189 0 0 0-.127-.14.187.187 0 0 0-.181.055.19.19 0 0 0-.137-.128.194.194 0 0 0-.18.06.182.182 0 0 0-.136-.121.188.188 0 0 0-.178.066.172.172 0 0 0-.024-.043.185.185 0 0 0-.293.004.194.194 0 0 0-.152-.105.187.187 0 0 0-.168.08.2.2 0 0 0-.16-.105.186.186 0 0 0-.158.09.183.183 0 0 0-.153-.09zm0 .068c.046 0 .089.035.106.08a.11.11 0 0 1 .008.039c0 .064-.052.12-.114.12a.117.117 0 0 1-.115-.12c0-.012.004-.025.008-.037a.115.115 0 0 1 .107-.082zm.307 0a.128.128 0 0 1 .117.121.124.124 0 0 1-.12.117c-.067-.008-.116-.063-.112-.123a.12.12 0 0 1 .008-.035.118.118 0 0 1 .107-.08zm-.627.016h.008c.028 0 .055.01.076.029a.106.106 0 0 1 .037.078c0 .057-.041.12-.113.125a.125.125 0 0 1-.12-.117.1.1 0 0 1 .028-.076.12.12 0 0 1 .084-.04zm.945.007.008.002c.053.006.092.04.104.084a.115.115 0 0 1 .004.035c-.009.07-.063.116-.13.108h-.001c-.06-.004-.105-.06-.102-.123a.119.119 0 0 1 .117-.105zm-1.27.016h.015a.117.117 0 0 1 .117.102.127.127 0 0 1-.032.09.112.112 0 0 1-.076.036.122.122 0 0 1-.127-.105.124.124 0 0 1 .027-.084.106.106 0 0 1 .077-.04zm1.583.02h.015c.03.003.058.02.077.042.01.013.016.027.02.043a.109.109 0 0 1 .001.04.118.118 0 0 1-.04.082.11.11 0 0 1-.083.021h-.002a.108.108 0 0 1-.076-.041.13.13 0 0 1-.025-.094.103.103 0 0 1 .01-.033.113.113 0 0 1 .103-.06zM78.963.14a.117.117 0 0 1 .115.1.12.12 0 0 1-.025.088.112.112 0 0 1-.078.043.11.11 0 0 1-.082-.024.115.115 0 0 1-.043-.08.11.11 0 0 1 .021-.084.111.111 0 0 1 .076-.04.045.045 0 0 1 .016-.003zm2.195.03a.116.116 0 0 1 .113.092.108.108 0 0 1 0 .042.117.117 0 0 1-.048.078.101.101 0 0 1-.078.018h-.002c-.067-.012-.106-.07-.094-.14a.1.1 0 0 1 .04-.066.12.12 0 0 1 .07-.025zm-2.51.019a.12.12 0 0 1 .104.06.122.122 0 0 1-.086.17.106.106 0 0 1-.08-.015.121.121 0 0 1-.049-.115.112.112 0 0 1 .112-.1zM81.46.23a.112.112 0 0 1 .035 0 .121.121 0 0 1 .09.14.118.118 0 0 1-.213.038.12.12 0 0 1-.012-.092.093.093 0 0 1 .014-.035.12.12 0 0 1 .086-.051zm-3.117.021a.11.11 0 0 1 .11.086.12.12 0 0 1-.09.143.102.102 0 0 1-.083-.016.125.125 0 0 1-.052-.07.13.13 0 0 1 0-.035.11.11 0 0 1 .088-.104.11.11 0 0 1 .027-.004zm1.41.036a.179.179 0 0 0 .309 0c.03.046.082.08.144.088h.004a.19.19 0 0 0 .158-.086.176.176 0 0 0 .145.1l.021.001a.18.18 0 0 0 .147-.074.182.182 0 0 0 .146.107l.024.002a.177.177 0 0 0 .14-.07.183.183 0 0 0 .172.115.177.177 0 0 0 .135-.064.185.185 0 0 0 .133.121h.002a.182.182 0 0 0 .17-.053.2.2 0 0 0 .015.035.19.19 0 0 0 .256.067.2.2 0 0 0 .033-.026.19.19 0 0 0 .123.133h.002c.018.006.034.01.051.01.045 0 .088-.02.121-.05a.186.186 0 0 0 .123.14.187.187 0 0 0 .172-.033.19.19 0 0 0 .113.14.174.174 0 0 0 .14-.002.165.165 0 0 0 .038-.021.182.182 0 0 0 .107.146.184.184 0 0 0 .143.006.162.162 0 0 0 .033-.018.176.176 0 0 0 .01.043.173.173 0 0 0 .09.102.185.185 0 0 0 .086.021.177.177 0 0 0 .094-.027c.002.06.034.118.088.156l.003.002a.19.19 0 0 0 .09.024c.033 0 .064-.01.092-.026 0 .017 0 .035.004.051.012.045.04.081.08.104a.2.2 0 0 0 .102.029.174.174 0 0 0 .078-.02.18.18 0 0 0 .184.197c.025 0 .05-.005.074-.015a.18.18 0 0 0 .175.201h.02a.201.201 0 0 0 .057-.015.18.18 0 0 0 .06.168.175.175 0 0 0 .115.045c.021 0 .04-.005.06-.012a.18.18 0 0 0 .057.174v.002a.19.19 0 0 0 .174.037.184.184 0 0 0 .045.166l.002.002a.187.187 0 0 0 .133.058h.008a.196.196 0 0 0 .035-.006.182.182 0 0 0 .041.168c.03.036.072.058.121.06h.014a.178.178 0 0 0 .039-.003.183.183 0 0 0-.01.043.199.199 0 0 0 .041.135l.002.004a.189.189 0 0 0 .17.058.178.178 0 0 0 .021.18v.002a.192.192 0 0 0 .147.068l.021-.002a.196.196 0 0 0 .018.178c.026.04.067.067.115.076a.18.18 0 0 0 .037.004l.014-.002a.172.172 0 0 0 .012.172.171.171 0 0 0 .152.09h.004a.18.18 0 0 0 0 .176.182.182 0 0 0 .156.095.185.185 0 0 0 .145.278.179.179 0 0 0-.01.174.189.189 0 0 0 .148.107.173.173 0 0 0-.021.178.184.184 0 0 0 .142.111.186.186 0 0 0-.033.174c.019.049.056.09.102.11a.154.154 0 0 0 .035.009.187.187 0 0 0 .062.285c.012.006.025.009.038.012a.187.187 0 0 0-.045.174c.016.064.066.11.127.129a.19.19 0 0 0-.053.17v.001a.188.188 0 0 0 .125.133.175.175 0 0 0-.062.166.176.176 0 0 0 .072.117c.013.01.027.018.043.024a.175.175 0 0 0-.034.033.177.177 0 0 0-.037.13c.009.066.055.12.114.147a.187.187 0 0 0-.079.162v.002a.19.19 0 0 0 .106.149.176.176 0 0 0-.082.156c0 .067.039.123.096.154a.183.183 0 0 0-.09.155c0 .063.038.121.092.154a.188.188 0 0 0-.098.15v.002a.19.19 0 0 0 .088.16.178.178 0 0 0-.102.143.181.181 0 0 0 .074.168.184.184 0 0 0-.04.023.188.188 0 0 0-.069.125.177.177 0 0 0 .072.165.189.189 0 0 0-.117.14.177.177 0 0 0 .06.166.173.173 0 0 0-.036.018.179.179 0 0 0-.077.12.171.171 0 0 0 .022.136.165.165 0 0 0 .027.03.188.188 0 0 0-.078.305.19.19 0 0 0-.133.124.177.177 0 0 0 .012.136.16.16 0 0 0 .027.037.176.176 0 0 0-.133.123.174.174 0 0 0 .028.172.174.174 0 0 0-.135.111.179.179 0 0 0-.004.141.18.18 0 0 0 .024.04.197.197 0 0 0-.047.01.18.18 0 0 0-.102.097.182.182 0 0 0 .012.174.187.187 0 0 0-.145.093v.002a.19.19 0 0 0 .006.186.18.18 0 0 0-.152.09.179.179 0 0 0-.022.14.17.17 0 0 0 .018.041.18.18 0 0 0-.154.084.19.19 0 0 0-.01.182.185.185 0 0 0-.162.074.181.181 0 0 0-.018.182.18.18 0 0 0-.164.068.173.173 0 0 0-.025.182.183.183 0 0 0-.166.064.172.172 0 0 0-.033.172.183.183 0 0 0-.04-.004.184.184 0 0 0-.13.063.178.178 0 0 0-.051.129c0 .015.005.031.01.046a.192.192 0 0 0-.168.045l-.002.002a.186.186 0 0 0-.053.174.182.182 0 0 0-.168.041.186.186 0 0 0-.055.174.184.184 0 0 0-.182.033.188.188 0 0 0-.06.166.185.185 0 0 0-.248.193.185.185 0 0 0-.178.02.172.172 0 0 0-.078.162.176.176 0 0 0-.172.01.184.184 0 0 0-.09.156.173.173 0 0 0-.176.006.18.18 0 0 0-.087.11.177.177 0 0 0-.008.044.177.177 0 0 0-.174-.002.179.179 0 0 0-.101.149.176.176 0 0 0-.176-.016.188.188 0 0 0-.106.153.166.166 0 0 0-.037-.024.189.189 0 0 0-.14-.002l-.002.002a.188.188 0 0 0-.11.139.194.194 0 0 0-.035-.022.176.176 0 0 0-.14-.005.19.19 0 0 0-.116.14.178.178 0 0 0-.04-.03.169.169 0 0 0-.133-.01.191.191 0 0 0-.127.136.187.187 0 0 0-.172-.045h-.002a.188.188 0 0 0-.127.125.188.188 0 0 0-.033-.03.172.172 0 0 0-.135-.02.183.183 0 0 0-.121.08.195.195 0 0 0-.018.036.179.179 0 0 0-.166-.058.188.188 0 0 0-.14.119.179.179 0 0 0-.032-.033.187.187 0 0 0-.258.035c-.01.012-.015.025-.021.039a.181.181 0 0 0-.287-.012.166.166 0 0 0-.023.041.189.189 0 0 0-.157-.086h-.002a.187.187 0 0 0-.152.1.18.18 0 0 0-.156-.09.177.177 0 0 0-.153.094.184.184 0 0 0-.146-.098h-.002a.18.18 0 0 0-.137.049.196.196 0 0 0-.027.035.192.192 0 0 0-.145-.103h-.002a.189.189 0 0 0-.166.078.184.184 0 0 0-.148-.107.178.178 0 0 0-.133.036.154.154 0 0 0-.03.028.182.182 0 0 0-.14-.11.173.173 0 0 0-.166.06.177.177 0 0 0-.017-.038.19.19 0 0 0-.118-.08.176.176 0 0 0-.17.052.175.175 0 0 0-.129-.121.172.172 0 0 0-.173.043.198.198 0 0 0-.127-.132.176.176 0 0 0-.172.037.19.19 0 0 0-.12-.135.179.179 0 0 0-.142.006.151.151 0 0 0-.031.021c-.002-.011-.007-.022-.012-.033a.188.188 0 0 0-.105-.103.183.183 0 0 0-.137.001.187.187 0 0 0-.037.02.19.19 0 0 0-.11-.148.166.166 0 0 0-.173.017.184.184 0 0 0-.096-.15h-.004a.196.196 0 0 0-.178.004.18.18 0 0 0-.09-.15l-.001-.003a.193.193 0 0 0-.18 0c0-.014 0-.028-.004-.043a.181.181 0 0 0-.08-.113.2.2 0 0 0-.15-.023.17.17 0 0 0-.032.011.184.184 0 0 0-.078-.16.192.192 0 0 0-.18-.017.18.18 0 0 0-.07-.159.185.185 0 0 0-.18-.03.196.196 0 0 0-.06-.167l-.004-.002a.19.19 0 0 0-.176-.027.18.18 0 0 0-.058-.174.179.179 0 0 0-.131-.045.166.166 0 0 0-.041.006.167.167 0 0 0-.049-.166.182.182 0 0 0-.174-.05.177.177 0 0 0-.043-.177.184.184 0 0 0-.172-.054.185.185 0 0 0-.033-.176.175.175 0 0 0-.166-.063.18.18 0 0 0-.021-.18h-.002a.197.197 0 0 0-.168-.07.2.2 0 0 0-.016-.177l-.002-.004a.19.19 0 0 0-.166-.072.188.188 0 0 0-.01-.182h-.002a.18.18 0 0 0-.154-.084.177.177 0 0 0-.002-.17.175.175 0 0 0-.11-.092.17.17 0 0 0-.048-.008.17.17 0 0 0 .006-.172.189.189 0 0 0-.149-.105.185.185 0 0 0 .01-.176.179.179 0 0 0-.146-.105.17.17 0 0 0 .021-.04.18.18 0 0 0-.145-.246.194.194 0 0 0 .036-.177l-.002-.002a.186.186 0 0 0-.137-.115.184.184 0 0 0 .035-.174.17.17 0 0 0-.086-.108.182.182 0 0 0-.048-.015.174.174 0 0 0 .044-.172.18.18 0 0 0-.127-.13.188.188 0 0 0 .055-.169l-.002-.002a.195.195 0 0 0-.12-.135.182.182 0 0 0 .064-.164h-.002a.19.19 0 0 0-.116-.142.178.178 0 0 0 .066-.162.185.185 0 0 0-.066-.125.214.214 0 0 0-.045-.024.187.187 0 0 0 .079-.162v-.002a.19.19 0 0 0-.106-.148.171.171 0 0 0 .08-.154.178.178 0 0 0-.092-.157.186.186 0 0 0 .088-.154.179.179 0 0 0-.09-.154.187.187 0 0 0 .094-.15.179.179 0 0 0-.084-.16.186.186 0 0 0 .104-.143v-.002a.193.193 0 0 0-.078-.168.177.177 0 0 0 .107-.147.177.177 0 0 0-.068-.164.185.185 0 0 0 .082-.277.183.183 0 0 0-.03-.03.195.195 0 0 0 .12-.138v-.002a.183.183 0 0 0-.051-.166.146.146 0 0 0 .033-.014.183.183 0 0 0 .086-.117.17.17 0 0 0-.043-.172.185.185 0 0 0 .13-.123v-.002a.176.176 0 0 0-.01-.139.178.178 0 0 0-.026-.033.189.189 0 0 0 .137-.123.185.185 0 0 0-.034-.172.173.173 0 0 0 .14-.113.185.185 0 0 0-.019-.174.174.174 0 0 0 .143-.111.177.177 0 0 0 .008-.137.184.184 0 0 0-.022-.039.185.185 0 0 0 .15-.094l.003-.002a.198.198 0 0 0-.008-.18.176.176 0 0 0 .154-.096.183.183 0 0 0 0-.177.19.19 0 0 0 .158-.086.186.186 0 0 0 .008-.18c.004 0 .006.003.01.003a.193.193 0 0 0 .152-.077l.002-.002a.189.189 0 0 0 .014-.181h.02a.18.18 0 0 0 .142-.069.18.18 0 0 0 .04-.138.193.193 0 0 0-.009-.043.142.142 0 0 0 .024.002h.017a.179.179 0 0 0 .121-.063.182.182 0 0 0 .033-.176c.012.003.024.002.036.002h.007a.179.179 0 0 0 .13-.062.182.182 0 0 0 .04-.172.165.165 0 0 0 .04.006h.003a.172.172 0 0 0 .123-.055.18.18 0 0 0 .059-.13.175.175 0 0 0-.008-.046c.016.005.034.01.05.01.045 0 .09-.016.126-.049a.19.19 0 0 0 .055-.173c.018.005.037.01.056.01a.183.183 0 0 0 .12-.044.175.175 0 0 0 .062-.166c.014.006.028.012.043.014.009.002.018.002.027.002.04 0 .077-.013.108-.037h.002a.192.192 0 0 0 .066-.172c.024.01.05.018.076.018a.207.207 0 0 0 .106-.032l.002-.002a.189.189 0 0 0 .072-.164.18.18 0 0 0 .08.018c.035 0 .07-.01.101-.03h.002a.182.182 0 0 0 .08-.113.135.135 0 0 0 .002-.04.18.18 0 0 0 .084.019c.03 0 .06-.006.088-.022a.174.174 0 0 0 .096-.16c.014.009.03.017.045.022a.185.185 0 0 0 .13-.016.19.19 0 0 0 .098-.113.16.16 0 0 0 .006-.033.186.186 0 0 0 .176.01h.002a.194.194 0 0 0 .104-.15c.012.01.024.018.039.024a.18.18 0 0 0 .136-.004.18.18 0 0 0 .112-.14.19.19 0 0 0 .117.043.175.175 0 0 0 .055-.01h.001a.193.193 0 0 0 .11-.102c.005-.012.007-.024.01-.037.033.03.076.047.123.047a.215.215 0 0 0 .05-.006l.002-.002a.182.182 0 0 0 .121-.136.186.186 0 0 0 .174.045.18.18 0 0 0 .13-.127.181.181 0 0 0 .13.059.187.187 0 0 0 .174-.127.177.177 0 0 0 .135.064c.01 0 .02 0 .03-.002a.192.192 0 0 0 .142-.12.197.197 0 0 0 .03.034c.032.025.07.037.11.037h.024a.185.185 0 0 0 .148-.11c.035.047.09.075.15.075h.01a.179.179 0 0 0 .15-.104c.034.05.09.084.155.084h.002a.189.189 0 0 0 .154-.097zm2.03.013c.009 0 .017.002.026.004a.123.123 0 0 1 .084.098.125.125 0 0 1-.004.049.104.104 0 0 1-.049.066.113.113 0 0 1-.086.012h-.002a.115.115 0 0 1-.074-.055.106.106 0 0 1-.014-.08.14.14 0 0 1 .024-.045.123.123 0 0 1 .095-.049zM78.03.326a.126.126 0 0 1 .115.086.12.12 0 0 1-.084.142.117.117 0 0 1-.145-.111c0-.05.036-.097.088-.113a.094.094 0 0 1 .026-.004zm4.043.066a.113.113 0 0 1 .046.006.111.111 0 0 1 .079.094.14.14 0 0 1-.006.045c-.02.063-.08.1-.139.082-.063-.023-.096-.086-.076-.147a.102.102 0 0 1 .05-.064.119.119 0 0 1 .046-.016zm-4.342.03a.105.105 0 0 1 .09.048c.005.01.01.019.013.03a.11.11 0 0 1-.004.087.118.118 0 0 1-.066.061.12.12 0 0 1-.146-.084.096.096 0 0 1 .003-.076.118.118 0 0 1 .073-.06.133.133 0 0 1 .037-.007zm4.646.072c.016 0 .033.001.049.007a.11.11 0 0 1 .072.094.13.13 0 0 1-.004.053.119.119 0 0 1-.144.07.116.116 0 0 1-.072-.154.102.102 0 0 1 .052-.06.117.117 0 0 1 .047-.01zM77.43.523c.016 0 .033.002.049.01a.103.103 0 0 1 .054.062c.013.03.013.06 0 .088a.123.123 0 0 1-.068.065.12.12 0 0 1-.144-.069.13.13 0 0 1-.006-.031.116.116 0 0 1 .011-.06.109.109 0 0 1 .065-.057.105.105 0 0 1 .039-.008zM28.823.57c-3.766 0-6.06 2.553-6.06 6.763s2.322 6.987 6.06 6.987c3.766 0 5.126-2.268 5.45-4.813h-2.83c-.25 1.397-1.158 2.592-2.704 2.592-1.869 0-3.007-1.397-3.007-4.729 0-3.303 1.138-4.58 3.007-4.58 1.546 0 2.454 1 2.703 2.397h2.83C34.004 2.559 31.84.57 28.823.57zM82.68.603a.11.11 0 0 1 .045.012.11.11 0 0 1 .068.095.127.127 0 0 1-.008.053.107.107 0 0 1-.058.063.124.124 0 0 1-.09.002.117.117 0 0 1-.035-.194c.01-.01.02-.018.033-.023a.11.11 0 0 1 .045-.008zm-5.55.033a.113.113 0 0 1 .094.05c.005.007.01.013.014.022a.11.11 0 0 1-.06.149h-.003a.107.107 0 0 1-.084.002.112.112 0 0 1-.062-.065.09.09 0 0 1-.008-.023c-.009-.048.018-.1.068-.127a.106.106 0 0 1 .041-.008zm3.621.04v.019c.06.01.07.05.065.084l-.04.41c-.024.227.025.346.188.361a.22.22 0 0 0 .113-.02c.109-.058.128-.166.143-.31l.045-.39c0-.04.02-.076.09-.07V.735l-.2-.02-.003.024c.069.005.079.044.074.084l-.04.39c-.014.124-.035.297-.198.278-.109-.01-.143-.09-.123-.283l.044-.42c.005-.035.02-.074.084-.069L81 .7l-.248-.025zm2.22.056a.11.11 0 0 1 .048.01.119.119 0 0 1 .066.1.126.126 0 0 1-.01.052.11.11 0 0 1-.15.057h-.002a.11.11 0 0 1-.06-.065.115.115 0 0 1 .005-.09.095.095 0 0 1 .03-.039.118.118 0 0 1 .029-.017.122.122 0 0 1 .045-.008zm-4.2.014-.207.048.01.02c.064-.015.087.02.097.055l.123.488-.472-.504-.149.035.01.026c.04-.01.05 0 .084.039l.01.01.152.617c.01.034.005.079-.064.093l.005.026.207-.05-.01-.024c-.068.014-.089-.02-.099-.055l-.137-.559.543.578h.014l-.182-.73c-.01-.035-.005-.074.069-.094l-.004-.02zM.046.753v13.381h2.719V8.581H8.29v-2.21H2.765V3.01h6.377L9.149.753H.046zm10.834 0V3.16h4.045v10.974h2.71V3.16h3.952V.753H10.88zm29.953 0v8.19c0 3.331 1.435 5.377 5.35 5.377 3.895 0 5.357-2.036 5.357-5.283V.753h-2.73v8.393c0 2.017-1.092 2.879-2.628 2.879-1.545 0-2.601-.88-2.601-2.88V.754h-2.748zm13.4 0v13.381h2.691V4.927l6.358 9.207h2.433V.754h-2.7v8.855L56.906.753h-2.674zm14.47 0v13.381h2.694V.754h-2.694zm19.766 0v13.381h2.693V4.927l6.355 9.207h2.434V.754H97.25v8.855L91.142.753h-2.674zM76.839.77c.035 0 .07.014.093.041a.11.11 0 0 1 .015.025.096.096 0 0 1 .006.08.122.122 0 0 1-.06.07.112.112 0 0 1-.15-.052.114.114 0 0 1-.006-.092.122.122 0 0 1 .056-.064.118.118 0 0 1 .045-.008zm4.704 0-.006.022c.045.01.05.022.065.072l.005.01-.144.623c-.01.04-.03.075-.104.06l-.003.024.2.044.007-.019c-.07-.02-.07-.06-.065-.1l.129-.552.227.755.01.004.173-.724c.01-.035.029-.075.098-.055l.006-.03-.203-.044-.004.02c.064.02.067.064.062.099l-.113.488L81.69.8l-.147-.03zm-1.586.05-.064.202h-.207l.168.125-.065.207.168-.123.172.123-.064-.207.173-.125h-.216L79.957.82zm3.299.048a.15.15 0 0 1 .055.011.12.12 0 0 1 .06.106.115.115 0 0 1-.168.102h-.002a.107.107 0 0 1-.054-.063.122.122 0 0 1 .039-.133.113.113 0 0 1 .07-.023zm-6.697.04a.12.12 0 0 1 .088.042.134.134 0 0 1 .019.025.099.099 0 0 1 .008.078.12.12 0 0 1-.063.073h-.002a.1.1 0 0 1-.078.01.122.122 0 0 1-.072-.06c-.004-.007-.006-.015-.008-.023A.121.121 0 0 1 76.51.92a.106.106 0 0 1 .049-.011zm5.753.061-.013.02c.074.024.073.063.058.097l-.207.598c-.01.035-.034.065-.103.045l-.006.02.242.09.006-.026c-.064-.025-.065-.065-.055-.1l.207-.597c.015-.035.04-.063.104-.043l.01-.022-.243-.082zm-4.527.043a.179.179 0 0 0-.066.016c-.168.05-.213.267-.13.504.09.247.269.365.417.31.168-.059.207-.272.123-.504-.075-.212-.22-.33-.344-.326zm5.748.012c.021 0 .043.003.063.014a.112.112 0 0 1 .054.103.125.125 0 0 1-.013.053.12.12 0 0 1-.16.047c-.055-.04-.072-.11-.042-.162a.1.1 0 0 1 .04-.037.124.124 0 0 1 .058-.018zm-5.765.035c.11-.006.21.144.267.315.05.118.094.354-.045.423-.094.05-.222-.057-.306-.304-.08-.222-.068-.372.05-.426a.116.116 0 0 1 .034-.008zm-1.485.004c.032 0 .063.014.086.037.006.006.012.01.016.018.016.03.02.066.01.097a.105.105 0 0 1-.055.063l-.002.002a.11.11 0 0 1-.15-.043.113.113 0 0 1 .096-.174zm6.446.049-.094.191.02.012c.083-.138.118-.124.177-.1l.059.036-.282.61c-.02.035-.049.067-.103.042l-.01.02.223.097.01-.02c-.06-.024-.055-.068-.04-.097l.286-.62.054.026c.06.03.094.044.05.197l.015.01.084-.191-.45-.213zm1.08.07c.021 0 .043.005.062.018a.114.114 0 0 1 .05.107.114.114 0 0 1-.017.053c-.034.053-.103.067-.16.033h-.002a.099.099 0 0 1-.047-.062.127.127 0 0 1 .016-.096.115.115 0 0 1 .037-.037.117.117 0 0 1 .06-.016zm-6.52.024-.242.103.01.025c.069-.03.094 0 .11.034l.251.578c.015.034.019.074-.05.103l.009.022.242-.1-.01-.025c-.069.03-.098.001-.113-.033l-.252-.579c-.01-.034-.014-.073.055-.103l-.01-.025zm-1.273.021a.12.12 0 0 1 .025.002.115.115 0 0 1 .072.055.11.11 0 0 1 .016.084.112.112 0 0 1-.049.07.125.125 0 0 1-.096.016.104.104 0 0 1-.064-.05.119.119 0 0 1 .033-.16.117.117 0 0 1 .063-.017zm8.054.133c.026 0 .05.006.07.021a.114.114 0 0 1 .046.104.121.121 0 0 1-.018.057.118.118 0 0 1-.166.025.107.107 0 0 1-.043-.072.122.122 0 0 1 .018-.088.105.105 0 0 1 .043-.035.106.106 0 0 1 .05-.012zm-7.246.033-.015.01c.025.089-.054.03-.143.07-.074.04-.093.147-.039.256.114.217.326.114.44.252.064.079.06.183-.004.213-.084.044-.19-.02-.264-.12l-.02.01.149.233.016-.01c-.035-.084.07-.035.148-.074.104-.054.108-.188.059-.287-.07-.139-.163-.148-.317-.188-.05-.01-.123-.03-.158-.093-.035-.07-.02-.123.03-.153.073-.034.168.03.238.123l.02-.01-.14-.232zm-1.072.014a.119.119 0 0 1 .096.045.127.127 0 0 1-.025.166c-.06.034-.129.021-.166-.032-.004-.005-.005-.011-.008-.017-.022-.049-.009-.114.033-.143a.13.13 0 0 1 .07-.02zm7.598.006-.01.02c.054.034.045.074.025.109l-.33.533c-.02.03-.054.059-.103.02l-.016.029.4.242.143-.153-.02-.015c-.118.109-.176.076-.236.04l-.1-.06c-.014-.01-.003-.035.006-.054l.163-.262.103.064c.05.03.079.075.03.158l.015.01.158-.246-.015-.01c-.055.085-.11.075-.159.045l-.103-.07.139-.227c.014-.024.04-.029.064-.02l.12.075c.049.03.042.097.013.156l.015.01.094-.146-.396-.248zm.965.13h.015c.026 0 .05.009.072.026a.107.107 0 0 1 .04.107.114.114 0 0 1-.022.053.125.125 0 0 1-.084.047.102.102 0 0 1-.078-.024h-.002a.116.116 0 0 1-.018-.162.11.11 0 0 1 .043-.035.108.108 0 0 1 .034-.012zm-8.82.053h.017a.116.116 0 0 1 .06.03c.006.004.01.01.014.015a.122.122 0 0 1-.017.166.12.12 0 0 1-.164-.03l-.01-.013a.117.117 0 0 1 .033-.146.108.108 0 0 1 .066-.022zm.777.098-.016.006c.03.089-.05.034-.129.084s-.092.158-.023.261c.128.203.335.085.459.213.064.074.069.179.01.213-.08.05-.188-.007-.272-.096l-.015.012.164.217.02-.01c-.04-.084.058-.04.132-.084.109-.064.105-.203.04-.297-.078-.128-.173-.133-.331-.158-.05-.005-.123-.02-.162-.084-.04-.064-.031-.119.013-.148.07-.045.168.01.252.1l.02-.01-.162-.22zm3.654.002-.01.006c-.004.003-.069.053-.181.134a5.581 5.581 0 0 0-3.871 1.756 2.19 2.19 0 0 1-.399-.015l-.033-.004-.004.035c0 .005-.027.207-.035.555a5.575 5.575 0 0 0-1.059 3.273 5.605 5.605 0 0 0 5.485 5.596l.097.072.01.008h.027l.008-.008.1-.074c3.03-.07 5.472-2.551 5.472-5.594v-.002a5.566 5.566 0 0 0-1.04-3.25 5.917 5.917 0 0 0-.036-.578l-.004-.031-.033.002a2.42 2.42 0 0 1-.43 0 5.587 5.587 0 0 0-3.838-1.739c-.117-.082-.185-.133-.189-.136l-.016-.006h-.021zm4.649.045c.025 0 .051.008.074.025a.128.128 0 0 1 .043.111.104.104 0 0 1-.022.051c-.047.051-.119.059-.164.018h-.002c-.049-.042-.054-.11-.015-.164a.119.119 0 0 1 .086-.041zm-4.635.029.088.064.101.07c.068.048.15.105.247.169l.06.04.06.042c.715.467 1.977 1.208 3.098 1.433l.065.012.056.01a3.38 3.38 0 0 0 .344.04 2.643 2.643 0 0 0 .334-.001c.007.063.02.214.027.437a8.698 8.698 0 0 1 .004.387v.059l-.002.062a10.24 10.24 0 0 1-.017.399l-.004.068-.008.094a9.93 9.93 0 0 1-.045.465l-.02.148-.017.12a9.853 9.853 0 0 1-.05.321l-.01.051-.01.059a10.943 10.943 0 0 1-.2.861l-.013.049-.004.018-.006.015a1.998 1.998 0 0 1-.01.035l-.002.006-.006.022a7.047 7.047 0 0 1-.021.072l-.03.098-.001.005-.008.022-.002.008-.01.033c0 .004-.002.008-.004.012-.015.047-.03.094-.047.142l-.015.053c-.002.005-.005.009-.006.014l-.014.039-.013.04-.053.147-.016.041a.947.947 0 0 0-.006.016l-.007.021-.006.016c-.005.012-.007.025-.012.037-.02.053-.043.106-.064.16l-.018.045-.01.024a10.424 10.424 0 0 1-.133.312c-.02.048-.042.095-.064.143-.04.085-.08.17-.123.257l-.04.077c-.007.015-.017.03-.025.046l-.013.032-.033.06-.034.063-.03.058c-.114.209-.238.42-.372.631l-.014.022s0 .003-.002.004l-.025.039-.027.04c-.237.363-.506.725-.813 1.085l-.076.09-.1.11a10.67 10.67 0 0 1-.27.292l-.009.01-.023.023-.002.002-.012.012-.014.013-.017.02a11.35 11.35 0 0 1-1.031.924l-.05.039-.046.037c-.065.05-.132.1-.2.15-.03.023-.061.048-.093.07l-.006.005a.102.102 0 0 0-.006-.004l-.094-.069c-.067-.05-.132-.101-.197-.152-.016-.012-.03-.025-.047-.037l-.049-.037a11.363 11.363 0 0 1-1.1-.994l-.056-.061-.02-.02-.007-.007c-.013-.014-.026-.03-.04-.043a10.767 10.767 0 0 1-.939-1.153c-.05-.07-.097-.142-.144-.212a10.49 10.49 0 0 1-.504-.834l-.06-.116a8.91 8.91 0 0 1-.147-.293l-.03-.056a10.632 10.632 0 0 1-.367-.867c0-.003 0-.006-.002-.008l-.01-.026-.015-.043-.03-.08-.042-.12-.022-.067-.006-.016L76 7.7c-.005-.013-.008-.027-.012-.04l-.018-.054a11.595 11.595 0 0 1-.144-.49l-.03-.11-.01-.043a.254.254 0 0 0-.01-.037l-.001-.01a4.298 4.298 0 0 1-.021-.09l-.004-.013-.03-.129a10.83 10.83 0 0 1-.117-.61l-.02-.115-.011-.087a10.66 10.66 0 0 1-.11-1.301l-.001-.067V4.45c-.001-.096 0-.185.001-.266l.004-.119c.008-.21.02-.355.026-.416a2.25 2.25 0 0 0 .404.01 3.13 3.13 0 0 0 .232-.022l.051-.008.065-.01c1.145-.195 2.445-.982 3.164-1.468l.058-.041.059-.04c.091-.062.17-.118.234-.165l.096-.07.086-.065zm-4.686.022a.12.12 0 0 1 .075.027l.011.01c.04.056.034.127-.013.164l-.002.002a.116.116 0 0 1-.162-.012l-.012-.014a.112.112 0 0 1-.016-.07.118.118 0 0 1 .041-.08.121.121 0 0 1 .078-.027zm8.7.001-.014.02c.05.044.034.083.01.113l-.4.49c-.02.025-.06.05-.11.01l-.016.014.184.148c.177.149.371.1.539-.093.173-.223.152-.415-.016-.553l-.178-.149zm-4.32.118-.25.172a5.364 5.364 0 0 0-3.175 1.472 3.137 3.137 0 0 1-.244.031 5.51 5.51 0 0 1 3.668-1.675zm.624 0a5.52 5.52 0 0 1 3.625 1.656 3.656 3.656 0 0 1-.256-.041 5.374 5.374 0 0 0-3.107-1.438c-.099-.065-.187-.126-.262-.177zm4.555.037a.113.113 0 0 1 .082.035c.023.02.037.046.039.076 0 .01-.002.021-.004.031a.116.116 0 0 1-.027.055.12.12 0 0 1-.166.008c-.049-.045-.05-.117-.002-.168a.11.11 0 0 1 .046-.03c.01-.003.02-.007.032-.007zm-.76.006c.011-.002.022.005.039.017.124.099.133.272-.025.465-.148.178-.315.216-.444.098-.015-.015-.025-.04.004-.075l.385-.472c.017-.022.03-.032.041-.033zM75.826 2l-.213.159.012.02c.06-.045.094-.02.113.009l.375.51c.02.035.035.074-.029.113l.02.02.207-.159-.016-.02c-.054.045-.088.02-.113-.009l-.365-.504c-.03-.034-.04-.075.025-.119L75.826 2zm-.81.002h.006a.12.12 0 0 1 .064.024l.014.014c.02.021.03.05.03.082a.115.115 0 0 1-.201.074l-.01-.014a.111.111 0 0 1-.02-.07.115.115 0 0 1 .043-.08.109.109 0 0 1 .074-.03zm4.9.114-.01.006-.004.002c-.11.08-2.412 1.749-3.914 1.757h-.05l-.04-.002a1.636 1.636 0 0 1-.142-.01l-.035-.005-.002.035c0 .003-.007.078-.012.21l-.002.054-.002.062c-.009.496.024 1.515.344 2.744a10.613 10.613 0 0 0 3.86 5.78l.001.001.008.006h.027l.006-.006.004-.002c2.424-1.922 3.434-4.224 3.856-5.818.322-1.22.359-2.224.351-2.71l-.002-.061-.002-.055a2.494 2.494 0 0 0-.012-.205l-.001-.031h-.034c-.05.001-.1.003-.15.002l-.045-.002a3.17 3.17 0 0 1-.049-.002c-1.849-.088-3.833-1.68-3.91-1.742h-.002l-.013-.008h-.024zm5.135.052a.103.103 0 0 1 .074.036.102.102 0 0 1 .033.074c0 .01 0 .02-.002.03a.118.118 0 0 1-.033.056.1.1 0 0 1-.072.037.12.12 0 0 1-.09-.04.117.117 0 0 1-.002-.157.134.134 0 0 1 .06-.032.105.105 0 0 1 .032-.004zm-5.123.022c.21.168 2.178 1.693 4 1.746l.049.002h.103l.004.076.002.055.002.06c.013.438-.003 1.485-.346 2.784a10.67 10.67 0 0 1-.303.959l-.037-.024c-.455.358-1.064.622-1.81.785l-.059.014a2.269 2.269 0 0 1-.332.047c-.16.015-.325.029-.437.072-.12.047-.154.12-.162.174-.022.14.105.3.222.394.025.02.038.049.03.065-.015.027-.098.057-.325-.01-.085-.025-.163.024-.22.08-.007-.294-.042-.473-.135-.568-.055-.056-.129-.082-.233-.082-.292 0-.352.347-.375.642-.055-.052-.13-.096-.213-.072-.226.066-.311.037-.326.01-.008-.017.004-.045.028-.065.117-.092.245-.25.224-.392-.008-.054-.04-.129-.16-.176-.115-.043-.28-.057-.44-.072a2.374 2.374 0 0 1-.333-.047l-.065-.014c-.744-.165-1.352-.43-1.806-.785l-.053.037c.002.006.037.12.168.246l-.012.01c.03.116.121.223.242.32.014.125.119.237.26.332.033.107.128.193.25.262a.418.418 0 0 0 .19.205.463.463 0 0 0 .195.184.43.43 0 0 0 .164.156.434.434 0 0 0 .203.14.74.74 0 0 0 .262.128l.002.002a.397.397 0 0 0 .295.128l.029-.001c.02.024.066.042.154.06a.08.08 0 0 0 .016.002c.03 0 .066-.013.105-.035.017.026.053.04.1.04l.03-.001c.018-.001.04-.013.066-.031a.16.16 0 0 0 .06.07c.014.01.028.014.045.014.008 0 .016 0 .023-.002a.122.122 0 0 0 .022-.008.218.218 0 0 0 .111.045.116.116 0 0 0 .05-.012c.025.05.057.076.09.076h.005a.144.144 0 0 0 .021.022c0 .092.003.17.01.195.019.09.126.342.363.342.195 0 .294-.133.338-.514a.153.153 0 0 0 .055-.045h.006c.034 0 .065-.026.092-.076a.12.12 0 0 0 .048.012.216.216 0 0 0 .113-.045.105.105 0 0 0 .02.008c.008.002.016.002.024.002a.074.074 0 0 0 .045-.014.157.157 0 0 0 .058-.068.136.136 0 0 0 .063.029.4.4 0 0 0 .033.002c.05 0 .084-.015.101-.041a.227.227 0 0 0 .106.035l.017-.002c.087-.018.134-.036.153-.06l.03.001h.001a.394.394 0 0 0 .293-.128l.004-.002a.731.731 0 0 0 .252-.123.436.436 0 0 0 .213-.147.437.437 0 0 0 .162-.152.467.467 0 0 0 .197-.186.415.415 0 0 0 .19-.207c.12-.069.214-.154.248-.26.141-.095.247-.207.261-.332.121-.097.211-.204.24-.32l-.011-.01a.799.799 0 0 0 .088-.101c-.555 1.435-1.576 3.157-3.451 4.65a10.55 10.55 0 0 1-4.157-8.545l.002-.064.004-.05.004-.08a1.879 1.879 0 0 0 .145.008c1.494.039 3.752-1.578 4-1.759zm-5.143.037c.024 0 .047.008.067.022.004.003.01.005.013.01a.106.106 0 0 1 0 .161l-.002.002a.102.102 0 0 1-.074.034.122.122 0 0 1-.084-.034.124.124 0 0 1-.002-.164.12.12 0 0 1 .082-.03zm.676.035-.129.113.277.604-.574-.336-.133.12.02.013c.054-.045.089-.024.113.006l.416.465c.025.03.045.067-.01.117l.014.02.158-.143-.013-.02c-.055.05-.09.03-.12 0l-.39-.435.623.367.01-.012-.307-.682.41.456c.025.03.04.063-.004.113l.014.02.178-.169L76 2.865c-.045.04-.085.02-.11-.01l-.42-.469c-.024-.024-.043-.065.007-.11l-.016-.015zm9.803.131c.032 0 .064.012.085.035a.121.121 0 0 1-.005.164.12.12 0 0 1-.088.032.107.107 0 0 1-.076-.038v-.002a.12.12 0 0 1 .007-.164.12.12 0 0 1 .076-.027zm-10.704.06h.008c.023 0 .045.007.065.02l.013.012c.022.02.036.05.037.08a.11.11 0 0 1-.029.08.11.11 0 0 1-.08.04.111.111 0 0 1-.084-.032l-.01-.012a.111.111 0 0 1-.025-.066.11.11 0 0 1 .03-.082.108.108 0 0 1 .075-.04zm10.9.18a.119.119 0 0 1 .104.035.132.132 0 0 1 .024.114.104.104 0 0 1-.038.052.12.12 0 0 1-.164-.011.125.125 0 0 1-.023-.086.106.106 0 0 1 .04-.078.119.119 0 0 1 .058-.026zm-11.112.059h.013a.11.11 0 0 1 .06.017l.015.008a.12.12 0 0 1 .011.166.11.11 0 0 1-.074.037.114.114 0 0 1-.086-.027l-.01-.01a.104.104 0 0 1-.03-.064.113.113 0 0 1 .026-.086.108.108 0 0 1 .075-.041zm10.177.062a.205.205 0 0 0-.123.053c-.069.06-.082.143-.043.188.045.049.127.033.192-.026.064-.059.078-.143.039-.187a.082.082 0 0 0-.065-.028zm1.14.125a.105.105 0 0 1 .098.041.125.125 0 0 1 .02.108.105.105 0 0 1-.037.056.122.122 0 0 1-.166-.017.12.12 0 0 1 .03-.164.114.114 0 0 1 .056-.024zm-10.911.036-.108.138.366.553-.617-.246-.116.129.016.013c.05-.049.09-.033.119-.013l.479.398c.034.03.055.065.005.12l.024.015.135-.164-.022-.014c-.045.06-.084.039-.113.014l-.453-.37.672.266.004-.01-.405-.626.473.39c.03.025.051.058.012.108l.02.015.151-.187-.02-.016c-.039.05-.078.035-.103.01l-.49-.4c-.03-.02-.05-.058-.01-.108l-.02-.016zm-.588.025a.11.11 0 0 1 .055.014l.015.007c.025.018.04.046.043.077a.116.116 0 0 1-.187.105c-.004-.002-.005-.005-.008-.008a.099.099 0 0 1-.035-.06.119.119 0 0 1 .025-.09.116.116 0 0 1 .092-.045zm11.004.158a.255.255 0 0 0-.13.049c-.192.138-.06.341-.183.475-.064.074-.163.083-.207.029-.054-.08-.005-.189.074-.277l-.01-.02-.208.178.015.015c.074-.044.04.065.094.139.074.094.202.078.291.014.129-.09.124-.187.139-.34.005-.05.01-.13.07-.174.064-.044.117-.034.146.006.055.064.006.172-.078.256l.014.02.209-.178-.016-.014c-.083.045-.033-.05-.088-.123a.153.153 0 0 0-.132-.055zm-5.262.024v.316l-.187.156-.016.719-1.754.18c-.007-.045-.017-.074-.03-.082l-.019-.008-.017.01c-.007.004-.019.01-.028.09h-.004l-.128.013-.002.068.115.018.002.01c-.068.14-.219.542-.586 1.703h-.067l.008.04c.001.006.113.477.72.477.58 0 .682-.471.683-.476l.007-.041h-.06c-.33-1.007-.493-1.453-.576-1.65l-.002-.043 1.726.275-.043 2.129c0 .06 0 .162-.597.162h-.03l-.004.03c-.016.115-.068.499-.015.577l.01.016h1.85l.009-.016c.058-.079.009-.462-.008-.578l-.004-.029h-.031c-.598 0-.598-.102-.598-.164l-.037-1.838c.019-.013.023-.06-.002-.291l1.697-.268c-.069.153-.22.565-.576 1.688h-.066l.01.04c0 .006.106.477.715.477.579 0 .684-.471.685-.476l.008-.041H82.6c-.33-1.007-.491-1.453-.574-1.65a8.295 8.295 0 0 0-.004-.059l.137-.022-.002-.068-.146-.015c-.009-.05-.019-.08-.032-.088L81.96 4.4l-.018.012c-.007.004-.017.009-.025.078l-1.738-.178-.014-.703v-.016l-.188-.156v-.316h-.068zm5.955.011c.037 0 .074.018.098.05.02.03.024.07.011.105a.121.121 0 0 1-.043.058.114.114 0 0 1-.088.016.104.104 0 0 1-.07-.045c-.035-.054-.023-.128.026-.162a.114.114 0 0 1 .066-.022zm-11.89.063a.126.126 0 0 1 .072.025c.051.033.063.104.03.158a.12.12 0 0 1-.165.026l-.01-.008a.122.122 0 0 1-.015-.152.102.102 0 0 1 .068-.045c.007-.002.013-.004.02-.004zm12.072.199a.12.12 0 0 1 .097.053.11.11 0 0 1 .008.107.119.119 0 0 1-.135.067.104.104 0 0 1-.066-.051l-.002-.004a.105.105 0 0 1-.016-.08.116.116 0 0 1 .051-.074.116.116 0 0 1 .063-.018zm-12.239.066c.016 0 .031.004.045.01a.09.09 0 0 1 .014.006.12.12 0 0 1 .035.16c-.033.051-.106.07-.156.04l-.014-.012a.115.115 0 0 1-.039-.063.12.12 0 0 1 .016-.092.12.12 0 0 1 .1-.049zm6.135.038.155.128.013.678-.164-.015-.004-.002-.076.007.008-.634h-.07l-.006.642-.024.002.014-.678.154-.128zm5.592.02-.182.106.01.016c.143-.069.163-.029.197.025l.035.053-.584.346c-.03.02-.072.03-.107-.024l-.02.01.127.213.02-.01a.082.082 0 0 1 .025-.115l.582-.34.036.05c.03.063.054.094-.075.192l.01.02.178-.113-.252-.43zm.674.147.013.002a.118.118 0 0 1 .088.055c.018.032.02.07.006.104a.123.123 0 0 1-.045.056.12.12 0 0 1-.162-.045v-.002a.116.116 0 0 1 .041-.154.123.123 0 0 1 .059-.016zm-12.57.069a.1.1 0 0 1 .044.01l.014.005c.027.015.048.04.057.069a.119.119 0 0 1-.012.088.107.107 0 0 1-.066.054.12.12 0 0 1-.094-.013l-.01-.008a.117.117 0 0 1-.031-.149.112.112 0 0 1 .098-.056zm.572.064c-.1.003-.182.046-.22.12-.095.138.004.339.222.462.227.144.44.114.52-.02.088-.147-.01-.345-.223-.474a.573.573 0 0 0-.3-.088zm-.059.07c.086-.003.2.043.309.108.113.064.3.223.236.361-.044.094-.213.093-.435-.04-.203-.124-.291-.242-.227-.36a.132.132 0 0 1 .117-.068zm12.213.073a.135.135 0 0 1 .104.059.126.126 0 0 1 0 .107.132.132 0 0 1-.055.057.112.112 0 0 1-.15-.055.112.112 0 0 1-.01-.088.112.112 0 0 1 .06-.066.093.093 0 0 1 .051-.014zm-12.877.072c.014 0 .028.003.041.008l.016.006c.053.027.074.095.049.156a.12.12 0 0 1-.16.043.107.107 0 0 1-.053-.062.121.121 0 0 1 .007-.094.107.107 0 0 1 .065-.051.108.108 0 0 1 .035-.006zm13.021.213a.124.124 0 0 1 .035.006c.03.01.054.032.067.058a.124.124 0 0 1-.006.1.112.112 0 0 1-.053.055.1.1 0 0 1-.08.006.12.12 0 0 1-.07-.065.11.11 0 0 1-.006-.084.11.11 0 0 1 .059-.062.125.125 0 0 1 .054-.014zm-11.117.057c0 .083 0 .171.002.267a5.354 5.354 0 0 0-.84 2.885 5.39 5.39 0 0 0 4.97 5.369c.065.052.13.103.198.154a5.533 5.533 0 0 1-5.316-5.523c0-1.17.364-2.257.986-3.152zm-2.045.015c.013 0 .025.002.037.006l.014.004c.03.013.052.035.063.063a.107.107 0 0 1-.006.084v.003a.112.112 0 0 1-.15.059c-.005-.002-.01-.003-.014-.006a.124.124 0 0 1-.04-.152.096.096 0 0 1 .055-.055.11.11 0 0 1 .041-.006zm11.147.006c.613.89.972 1.97.972 3.131a5.537 5.537 0 0 1-5.306 5.524l.201-.157a5.391 5.391 0 0 0 4.647-7.17V5.63a.183.183 0 0 0-.045-.117 5.362 5.362 0 0 0-.47-.937c.001-.097.002-.188.001-.272zm-4.551.053.17.017.033.002.035.004 1.711.176-1.703.27h-.002l-.031.005h-.002l-.033.006-.053.008-.125.02-.082-.012-.043-.008-.025-.004-.028-.004-.025-.004-.01-.002-.027-.003-.006-.002-1.701-.27 1.709-.176.035-.004.035-.002.023-.003.069-.006.076-.008zm6.076.004-.62.1c-.13.02-.223.039-.253-.01l-.02.01.073.158.021-.01c-.01-.025-.016-.054.024-.074.044-.02.147-.03.197-.04l.094.202-.078.074c-.084.084-.103.093-.143.03l-.02.009.094.2.02-.012c-.02-.04.04-.089.074-.124l.543-.498-.006-.015zm-12.285.015-.006.014c.08.07-.034.066-.084.18-.069.158.045.35.278.449.252.114.448.053.517-.1.035-.074.016-.187-.049-.271h-.029c.054.089.064.163.03.242-.06.129-.257.108-.42.04-.203-.09-.337-.218-.278-.347.045-.094.16-.117.293-.078l.01-.025-.262-.104zm12.113.05-.261.241-.094-.187.355-.055zm-5.92.054a.108.108 0 0 0-.062.031.094.094 0 0 0-.03.069.1.1 0 0 0 .028.07c.019.02.047.033.076.033a.101.101 0 0 0 .098-.103.1.1 0 0 0-.098-.1h-.012zm6.71.035a.1.1 0 0 1 .027.004l.011.004a.15.15 0 0 1 .069.062.114.114 0 0 1-.01.102.125.125 0 0 1-.057.049.109.109 0 0 1-.086 0 .108.108 0 0 1-.06-.06v-.003a.107.107 0 0 1-.002-.084.112.112 0 0 1 .064-.064.09.09 0 0 1 .043-.01zm-13.409.072c.01 0 .018.002.028.004l.015.004c.056.023.084.09.06.149h-.001a.112.112 0 0 1-.146.064l-.014-.006a.107.107 0 0 1-.05-.053.122.122 0 0 1-.001-.093c.016-.042.062-.069.11-.069zm6.469.19v.008-.008zm6.505.03-.203.073.01.02c.158-.04.173-.005.193.055l.026.058-.633.242c-.04.015-.079.015-.103-.045l-.02.01.084.233.023-.01c-.024-.06.01-.089.045-.104l.633-.236.024.059c.02.059.034.093-.104.168l.006.02.197-.08-.178-.464zm.545.003c.013 0 .025 0 .037.004l.014.004a.114.114 0 0 1 .059.07.108.108 0 0 1-.008.096.114.114 0 0 1-.057.047.111.111 0 0 1-.088 0 .123.123 0 0 1-.064-.069.119.119 0 0 1 .107-.152zm-13.63.072a.1.1 0 0 1 .035.006.12.12 0 0 1 .07.145.122.122 0 0 1-.062.07.11.11 0 0 1-.088.002c-.004-.001-.007-.004-.01-.006a.103.103 0 0 1-.053-.049.122.122 0 0 1-.004-.095c.015-.045.063-.073.112-.073zm4.728.08c0 .28.006.706.028 1.352h-.507l-.03-.006c.19-.472.394-.993.51-1.346zm4.057.004c0 .28.008.706.027 1.348h-.502l-.031-.006c.19-.47.39-.989.506-1.342zm2.603.018c.05.077.17.288.18.531a.18.18 0 0 0-.031.182.18.18 0 0 0-.166-.026l-.012.004c-.009.004-.018.007-.025.012a.172.172 0 0 0-.047.043c.033-.255.056-.495.07-.713a.377.377 0 0 1 .031-.033zm-4.744.002.032.008-.022 2.1h.068l.022-2.08c.116.034.238.083.268.128l.03 1.568-.029-1.396-.068.002.035 1.693h.069v.016c0 .082.024.158.228.199v.234h.069v-.222c.004 0 .008 0 .013.002v.117h.07v-.11l.026.002v.108h.068V7.25c.05.003.103.004.162.004.027.199.042.422.024.487h-.033v-.403h-.069v.403h-.435V7.41h-.069v.332h-.035V7.41h-.068v.332h-.643v-.514l.035-.008v.225h.069v-.242l.015-.006v.09h.069V7.16c.05-.04.058-.086.058-.135l.041-2.04zm2.276.072c.125.354.315.828.492 1.256h-.53c.018-.37.037-.864.038-1.256zm-4.059.004c.126.354.317.825.494 1.252h-.529c.016-.37.035-.86.035-1.252zm8.885.047a.107.107 0 0 1 .037.01.12.12 0 0 1 .06.074.107.107 0 0 1-.008.084.109.109 0 0 1-.066.055.104.104 0 0 1-.082-.004.119.119 0 0 1-.06-.069.116.116 0 0 1 .007-.09.111.111 0 0 1 .07-.054.094.094 0 0 1 .042-.006zm-13.854.074a.1.1 0 0 1 .024.004c.004.001.009 0 .013.002a.12.12 0 0 1 .069.055.112.112 0 0 1 .008.086c-.024.064-.082.096-.147.076l-.01-.004a.102.102 0 0 1-.054-.051.133.133 0 0 1-.01-.09.107.107 0 0 1 .107-.078zm13.944.229a.109.109 0 0 1 .048.015.12.12 0 0 1 .057.069.122.122 0 0 1-.084.146.116.116 0 0 1-.06-.225.11.11 0 0 1 .039-.005zm-13.211.003c-.049.006-.088.031-.102.067-.014.06.035.124.123.148.084.025.163-.004.178-.058.02-.06-.035-.124-.119-.149a.191.191 0 0 0-.08-.008zm12.687.008-.023.01c.02.06-.016.084-.05.094l-.602.187c-.035.01-.074.01-.094-.058l-.02.01.133.455.217-.026-.004-.02c-.173 0-.193-.063-.213-.132l-.035-.11c-.005-.014.021-.03.041-.035l.295-.088.035.114c.02.059.009.109-.08.138l.006.024.281-.088-.004-.02c-.094.03-.13-.01-.154-.07l-.035-.113.258-.084c.03-.01.053 0 .058.025l.045.133c.02.06-.034.105-.094.135l.006.02.172-.055-.139-.446zm-11.279.028c.07.066.221.223.356.443.021.147.047.3.076.455a18.519 18.519 0 0 0-.316-.664l-.061.031c.004.008.335.669.45.983l.013.066a1.958 1.958 0 0 0-.36-.424c-.139-.269-.234-.588-.158-.89zm-2.226.037a.05.05 0 0 1 .017.002.11.11 0 0 1 .084.057.097.097 0 0 1 .01.077l-.002.004a.118.118 0 0 1-.055.077.102.102 0 0 1-.082.005c-.004 0-.007-.002-.011-.004a.113.113 0 0 1-.063-.05.105.105 0 0 1-.008-.086.11.11 0 0 1 .11-.082zm11.9.029a.113.113 0 0 1 .115.113l-.002.01a.115.115 0 0 1-.113.106.114.114 0 0 1-.088-.043.114.114 0 0 1-.023-.057l-.002-.016c0-.012.002-.024.006-.035a.112.112 0 0 1 .107-.078zm2.17.207a.125.125 0 0 1 .078.01.11.11 0 0 1 .06.078.109.109 0 0 1-.013.086l-.006.01a.119.119 0 0 1-.064.04.119.119 0 0 1-.141-.087.12.12 0 0 1 .086-.137zm-2.445.006c.04 0 .077.022.097.055a.102.102 0 0 1 .014.04.18.18 0 0 0-.063.065v.002a.177.177 0 0 0-.021.06.104.104 0 0 1-.022.004h-.005a.113.113 0 0 1-.053-.011.114.114 0 0 1-.031-.026c-.004-.003-.005-.007-.008-.011a.122.122 0 0 1-.02-.045c-.001-.008-.004-.016-.004-.024 0-.015.005-.03.01-.043a.102.102 0 0 1 .074-.062.123.123 0 0 1 .032-.004zm-11.7.064.014.002.014.002a.107.107 0 0 1 .07.047.122.122 0 0 1 .018.086.12.12 0 0 1-.143.092l-.006-.002a.115.115 0 0 1-.076-.137.112.112 0 0 1 .11-.09zm11.907.075c.062 0 .113.05.113.113 0 .06-.052.11-.113.11a.112.112 0 0 1-.114-.096v-.014a.107.107 0 0 1 .043-.09.113.113 0 0 1 .041-.021c.01-.003.02-.002.03-.002zm-.364.064a.185.185 0 0 0 .057.063l.006.001a.167.167 0 0 0 .049.022l-.022.025-.016.014-.037.035c-.004-.014-.009-.03-.013-.05a2.407 2.407 0 0 1-.023-.11zm-11.181.053-.084.46h.03c.009-.059.049-.065.083-.06l.621.104c.035.005.076.026.06.095l.024.004.084-.468-.201-.075-.006.02c.148.074.138.139.123.213l-.02.113c0 .015-.024.014-.048.014l-.307-.053.026-.125c.01-.06.04-.104.138-.084l.004-.02-.29-.048v.02c.093.014.109.063.099.122l-.026.125-.267-.045c-.03-.005-.044-.024-.04-.049l.026-.138c.01-.06.075-.074.139-.074l.004-.02-.172-.031zm13.877.047c.018 0 .037.006.052.015.029.016.05.044.057.078a.113.113 0 0 1-.025.092.115.115 0 0 1-.067.041.112.112 0 0 1-.088-.021.11.11 0 0 1-.045-.073v-.001a.107.107 0 0 1 .018-.08.118.118 0 0 1 .098-.051zm-14.3.074.01.002h.012c.03.003.057.02.075.045a.108.108 0 0 1 .02.084.113.113 0 0 1-.134.095l-.01-.003a.11.11 0 0 1-.064-.043.115.115 0 0 1-.015-.088.103.103 0 0 1 .04-.07.112.112 0 0 1 .067-.022zm13.723.039a.3.3 0 0 0-.066.008c-.232.054-.184.293-.352.367-.088.044-.182.014-.197-.055-.02-.089.065-.174.174-.228l-.006-.02-.256.09v.02c.099-.01.02.069.04.158.029.118.156.153.265.129.148-.035.183-.13.252-.268.025-.044.06-.114.135-.129.079-.02.128.01.138.065.02.079-.064.158-.168.203l.004.025.252-.08-.004-.02c-.093 0-.016-.058-.04-.152-.013-.068-.08-.114-.17-.113zM74.918 6.2a.92.92 0 0 1 .33.183 1.748 1.748 0 0 1 .219.227 2.359 2.359 0 0 1 .244.365l.011.023.014.055c.038.147.081.298.129.453-.338-.355-.805-1.082-.81-1.091l-.057.035c.022.035.431.678.767 1.05a1.298 1.298 0 0 0-.502-.302c-.306-.382-.342-.853-.345-.998zm9.455.013a2.543 2.543 0 0 1-.114.748.798.798 0 0 1-.048.036.459.459 0 0 0-.065.054c.01-.04.022-.081.031-.12.058-.236.106-.465.145-.684a.776.776 0 0 1 .05-.034zm.635.026-.211.672-.016.052-.016.051c-.043.137-.084.26-.113.35-.046.126-.33.396-.594.564a.193.193 0 0 0-.025-.06.18.18 0 0 0 .172-.178v-.01a.166.166 0 0 0-.01-.053.166.166 0 0 0-.031-.058c-.005-.006-.01-.013-.016-.018l.063-.05.074-.067a3.3 3.3 0 0 0 .135-.13 2.08 2.08 0 0 0 .183-.22l.03-.04.003-.006.034-.053a1.113 1.113 0 0 0 .1-.217l-.014-.027h-.004l-.016-.006-.025.013-.002.002-.012.034c-.03.082-.077.163-.13.24l-.032.045-.014.017-.033.043c-.07.087-.148.164-.215.227l-.07.064.002-.011-.002-.016a.177.177 0 0 0-.035-.096.197.197 0 0 0-.053-.045l-.022-.011.01-.036a.674.674 0 0 1 .11-.125l.035-.029.02-.013.052-.04c.122-.1.225-.234.324-.365.11-.143.223-.29.364-.396zm2.11.11a.117.117 0 0 1 .075.015l.01.008a.106.106 0 0 1 .04.072.113.113 0 0 1-.02.088l-.007.007a.108.108 0 0 1-.066.038.124.124 0 0 1-.135-.104.11.11 0 0 1 .024-.08.119.119 0 0 1 .08-.045zm-9.49.034h.403a.36.36 0 0 1-.072.156.307.307 0 0 1-.246.122c-.185 0-.27-.18-.301-.27l.014.002c.031.099.077.166.138.2.065.034.12.017.125.015l.002-.065a.103.103 0 0 1-.064-.054c-.016-.037-.006-.08.002-.106zm.759 0h.043a.278.278 0 0 1-.065.092.158.158 0 0 0 .022-.092zm3.298 0h.407a.358.358 0 0 1-.073.155.303.303 0 0 1-.244.123c-.185 0-.271-.18-.303-.27l.014.002c.032.099.078.166.139.2a.165.165 0 0 0 .125.015l.002-.065a.103.103 0 0 1-.065-.054.165.165 0 0 1-.002-.106zm.762 0h.04a.258.258 0 0 1-.06.088.157.157 0 0 0 .02-.088zm-9.707.037.006.002h.01a.115.115 0 0 1 .08.043.109.109 0 0 1 .022.082.117.117 0 0 1-.045.078.114.114 0 0 1-.084.026l-.01-.002c-.06-.012-.098-.066-.09-.133a.112.112 0 0 1 .111-.096zm.703.237c-.232.006-.355.128-.369.334l-.013.226h.02c.004-.07.043-.079.087-.074l.629.05c.034.006.073.02.068.085h.026l.013-.233c.02-.237-.127-.367-.384-.386a.799.799 0 0 0-.077-.002zm13.713.002a.125.125 0 0 1 .076.021.116.116 0 0 1 .051.08.132.132 0 0 1-.033.096.111.111 0 0 1-.069.035.123.123 0 0 1-.13-.105.123.123 0 0 1 .105-.127zm-2.055.056c-.048.18-.138.504-.242.854-.055.197-.69.557-1.111.709l.055-.145.002-.004a.175.175 0 0 0 .25-.119c.146-.088.302-.21.425-.326.12-.113.21-.223.237-.297l.007-.023.032-.096.1-.316c.09-.07.171-.152.245-.237zm-12.392.018h.012c.065.008.11.064.107.13a.125.125 0 0 1-.129.104l-.008-.002a.12.12 0 0 1-.095-.129.117.117 0 0 1 .113-.103zm.738.017c.021 0 .044.002.067.004.237.02.361.133.341.31-.004.02-.02.041-.064.036l-.607-.045c-.065-.005-.07-.01-.065-.055.018-.147.124-.247.328-.25zm13.738.225h.008c.025 0 .048.008.067.022l.01.007a.12.12 0 0 1 .033.082.114.114 0 0 1-.104.121c-.06 0-.123-.039-.123-.113v-.002a.102.102 0 0 1 .03-.078.124.124 0 0 1 .08-.039zm-.828.014-.008.002c-.084.014-.142.073-.132.132.01.065.083.1.168.09.088-.014.147-.079.142-.138-.01-.058-.089-.093-.17-.086zm-13.672.06h.006c.068.004.121.058.117.121-.004.069-.068.112-.123.112h-.01a.117.117 0 0 1-.058-.205.103.103 0 0 1 .068-.028zm2.323.178a.874.874 0 0 1 .224.033c.02.006.04.01.059.018a1.34 1.34 0 0 1 .451.293c.022.02.042.043.063.064l.052.057c.044.05.083.097.115.142l.055.16c-.338-.078-.803-.566-.808-.572l-.05.047c.022.023.47.494.829.588-.58.156-1.117-.617-1.234-.799a.87.87 0 0 1 .244-.031zm4.396.012v.504h-.021v-.49h-.069v.49h-.035V7.25a2.19 2.19 0 0 0 .125-.011zm-.193.015v.489h-.035v-.487l.035-.002zm-.13.002h.026v.487h-.053c-.016-.067 0-.289.028-.487zm8.118.035a.12.12 0 0 1 .072.024.11.11 0 0 1 .047.09c0 .035-.02.067-.047.088a.118.118 0 0 1-.072.027c-.061 0-.12-.057-.12-.115 0-.068.062-.114.12-.114zm-6.893.016v.223h.07v-.223h-.07zm3.77.004c.009.005.018.009.025.016a.11.11 0 0 1 .021.029.114.114 0 0 1 .014.055c0 .046-.03.083-.072.1a.196.196 0 0 0-.047-.007l.021-.066.018-.063.02-.064zm-10.202.05-.02.005c.006.049-.069.07-.118.09l-.686.261v.024l.617.129c.13.024.217.044.227.093h.025l-.01-.172-.025.004c0 .03-.004.06-.049.06-.044.006-.147-.025-.197-.03l-.015-.23.103-.042c.109-.04.135-.04.145.03h.023l-.02-.221zm-1.199.005h.008c.067 0 .12.05.12.113a.12.12 0 0 1-.12.115l-.008-.002c-.058-.004-.11-.057-.11-.113 0-.064.056-.109.11-.113zm11.342.207a.13.13 0 0 1 .047.01l.006.001c.01.005.02.01.03.018a.111.111 0 0 1 .036.08c0 .07-.049.12-.119.12-.002 0-.005-.003-.008-.003a.104.104 0 0 1-.035-.008.092.092 0 0 1-.027-.02.034.034 0 0 1-.012-.009l.057-.176c0-.003.003-.008.004-.011a.118.118 0 0 1 .021-.002zm3.18.03a.13.13 0 0 1 .074.028l.016.016c.017.02.024.045.021.072a.124.124 0 0 1-.045.09.112.112 0 0 1-.072.027.122.122 0 0 1-.115-.123c.004-.068.067-.11.12-.11zm-13.623.005.013.207-.355-.074.342-.133zm12.738.015c-.199.011-.331.113-.348.243-.02.177.153.31.395.336.266.03.459-.08.468-.239.025-.163-.153-.306-.4-.336a.688.688 0 0 0-.115-.004zm-13.625.053h.006c.03 0 .059.011.08.031a.115.115 0 0 1 .035.084v.002a.103.103 0 0 1-.031.079.125.125 0 0 1-.078.039l-.01-.002a.116.116 0 0 1-.01-.23c.003-.001.005-.003.008-.003zm2.127.035c.06 0 .113.054.113.114 0 .06-.054.115-.113.115-.06 0-.11-.054-.11-.115 0-.062.05-.114.11-.114zm11.467.01c.04-.001.084 0 .132.006.242.035.37.104.37.232-.015.139-.21.169-.409.149-.133-.015-.367-.08-.367-.238 0-.08.1-.144.274-.149zm-1.164.035a2.337 2.337 0 0 1-.32.63.186.186 0 0 0-.114.14 1.43 1.43 0 0 1-.12.115.17.17 0 0 0-.056.047c-.13.1-.283.18-.463.22-.33.073-.56.205-.722.311.015-.03.033-.061.048-.092l.002-.006.032-.064.035-.07c.06-.127.116-.253.17-.377a.982.982 0 0 1 .379-.281.178.178 0 0 0-.01.054c0 .1.08.184.182.184l.011-.002a.184.184 0 0 0 .155-.108.182.182 0 0 0 .017-.074.18.18 0 0 0-.057-.13c.302-.097.635-.283.83-.497zm-10.022.094c.06 0 .113.054.113.113a.112.112 0 0 1-.049.094.185.185 0 0 0-.1-.03.187.187 0 0 0-.052.01.12.12 0 0 1-.027-.074c0-.063.052-.113.115-.113zm8.808.002a.114.114 0 0 1 .055.03c.021.02.033.05.033.081v.004a.117.117 0 0 1-.01.045.106.106 0 0 1-.097.067c-.01 0-.021-.004-.031-.006l-.012-.002a.111.111 0 0 1-.014-.006.618.618 0 0 1 .008-.022l.027-.072c.015-.04.028-.08.041-.119zm3.274.066h.008a.116.116 0 0 1 .07.036.122.122 0 0 1 .033.091.115.115 0 0 1-.039.078c-.003.003-.006.004-.01.006a.112.112 0 0 1-.072.024.118.118 0 0 1-.107-.131V8.02c.003-.055.059-.102.117-.102zm-14.47.075h.005c.06 0 .114.046.121.107a.116.116 0 0 1-.109.121h-.01a.105.105 0 0 1-.072-.023.109.109 0 0 1-.037-.08.106.106 0 0 1 .021-.08.123.123 0 0 1 .069-.043l.011-.002zm10.61.004a.805.805 0 0 1-.167.166l-.024.015c-.05.038-.135.103-.275.182-.178.1-.444.223-.84.344l-.09.027-.037.01c-.072.02-.148.04-.228.06l-.002.002-.073.018c-.083.02-.172.04-.265.058-.054.014-.109.014-.162.016h-.004c-.09.002-.178.007-.229.072a.143.143 0 0 0-.017.028L80.902 9a.13.13 0 0 0-.008.112c.004.01.01.021.016.031l.005.006a.38.38 0 0 0 .036.043l.006.006.017.017a.658.658 0 0 0 .008.008l.004.004.037.041.008.01.013.015.002.002a.232.232 0 0 1 .045.09l.002.002c.004.012.004.022.006.033l.002.002.002.032v.035c0 .007-.003.014-.004.021 0 .005 0 .01-.002.014v.002c-.001.007-.004.013-.006.02a.172.172 0 0 1-.008.02l-.005.014-.006.01-.008.008V9.6a.1.1 0 0 1-.037.018.53.53 0 0 1-.059.012l-.006.001-.017.002-.016.002a.652.652 0 0 1-.023.002h-.004l-.022.002h-.08a.648.648 0 0 1-.076-.006l-.017-.002c-.016-.002-.033-.003-.047-.006l-.004-.002a.314.314 0 0 0-.043-.005.185.185 0 0 0-.041.002.305.305 0 0 0-.115.031.168.168 0 0 0-.034.02c-.002 0-.005.004-.008.005a.626.626 0 0 0-.052.04l-.006.003-.022.018-.005.006c-.008.006-.014.014-.022.021v-.059l.002-.134c.046-.058.123-.14.2-.117.282.082.376.033.405-.024.024-.047.004-.108-.048-.148-.11-.09-.214-.227-.198-.33.009-.053.048-.094.12-.122.103-.04.263-.053.417-.068.129-.012.25-.024.344-.049l.057-.011c.69-.152 1.264-.39 1.71-.705zM76.566 8c.446.313 1.017.547 1.701.7l.06.013c.097.025.218.037.346.05.155.014.314.028.42.067.07.028.112.069.12.122.015.105-.09.242-.202.33-.05.041-.07.102-.045.148.03.056.125.106.406.024.071-.021.142.05.186.103a.824.824 0 0 1 .033.043l.006.008v.002a.27.27 0 0 0 .066.062c.011.008.024.015.036.022a.872.872 0 0 0 .16.07c.019.007.034.01.047.014h.002l.002.074V9.9l.001.08.002.058.002.086-.007-.007-.008-.01-.008-.006v-.002l-.033-.033-.004-.004-.002-.002-.027-.03h-.002l-.006-.007-.018-.02-.008-.008-.01-.01-.001-.001-.006-.006-.018-.022h-.002l-.023-.027-.008-.008-.012-.013-.027-.032h-.002l-.023-.027-.002-.002-.028-.03-.004-.003-.01-.01-.011-.012-.01-.01a.588.588 0 0 0-.043-.04l-.006-.006-.021-.018-.004-.004a.574.574 0 0 0-.055-.039l-.006-.006a.346.346 0 0 0-.148-.053h-.039a.354.354 0 0 0-.05.006l-.005.002c-.013.003-.027.004-.04.006l-.02.002a1.02 1.02 0 0 1-.075.006h-.046l-.04-.002h-.015l-.012-.002a.465.465 0 0 1-.02-.002h-.011a.288.288 0 0 1-.016-.002l-.008-.002a.543.543 0 0 1-.048-.01c-.004 0-.007-.002-.01-.003a.113.113 0 0 1-.04-.018l-.007-.008-.006-.011a.115.115 0 0 1-.006-.012l-.01-.02v-.004l-.003-.015-.002-.004-.002-.012-.002-.023v-.034c0-.01.002-.022.004-.033V9.42l.007-.035.012-.033a.264.264 0 0 1 .035-.059l.014-.015.008-.01c.012-.014.023-.029.035-.041.001-.002.004-.002.006-.004.003-.003.006-.009.01-.012l.013-.013.004-.006a.44.44 0 0 0 .035-.043l.006-.006c.007-.01.011-.02.016-.031A.13.13 0 0 0 78.982 9l-.002-.004a.166.166 0 0 0-.02-.029c-.05-.065-.136-.07-.226-.072h-.006c-.053-.002-.107-.002-.162-.016a9.275 9.275 0 0 1-.264-.058l-.074-.018-.002-.002c-.08-.02-.157-.04-.229-.06l-.035-.01a4.156 4.156 0 0 1-.932-.371 2.225 2.225 0 0 1-.275-.182l-.02-.014a.84.84 0 0 1-.17-.164zm-1.752.022c.046 0 .086.03.103.072a.175.175 0 0 0-.039.111l.002.024a.113.113 0 0 1-.066.021.11.11 0 0 1-.11-.109c0-.065.05-.12.11-.12zm-.88.031-.024.004c.005.035-.016.06-.055.09l-.272.226c-.03-.084-.104-.147-.238-.123-.138.025-.196.128-.172.266l.04.232.025-.003c-.01-.06.024-.08.058-.084l.623-.114c.035-.005.075 0 .084.059l.03-.006-.045-.23-.024.003c.01.06-.026.08-.06.09l-.281.043-.01-.043.345-.271-.025-.139zm1.126.043a.12.12 0 0 1 .053.014.114.114 0 0 1 .035.027.103.103 0 0 1 .023.09.125.125 0 0 1-.06.084.105.105 0 0 1-.07.012.116.116 0 0 1-.094-.118v-.003a.109.109 0 0 1 .047-.084v-.002a.118.118 0 0 1 .04-.016c.009-.002.017-.004.026-.004zm9.764.022-.008.004-.022.007a.244.244 0 0 1-.015.03c-.083.134-.321.3-.682.47a6.449 6.449 0 0 1-.584.24l-.006.003-.011.027.007.017.024.004h.002l.004.01.01-.004.072-.025.142-.057.028-.01c.13-.052.285-.119.437-.195.037-.019.075-.037.111-.057.21-.112.397-.24.487-.369a.378.378 0 0 0 .033-.056l-.006-.018-.004-.012-.02-.01zm-9.206.037a.787.787 0 0 1 .514.199.709.709 0 0 1-.299.268h-.007a.183.183 0 0 0-.124.046c-.327.08-.681-.067-.798-.123.052-.057.105-.107.158-.152.075 0 .141-.05.168-.12a.79.79 0 0 1 .389-.118zm1.063.056a.777.777 0 0 1 .018.01l.015.012c.113.086.402.307 1.08.52a.133.133 0 0 0-.011.105v.004a4.766 4.766 0 0 1-.522-.211 2.124 2.124 0 0 1-.404-.246l-.035-.028a.67.67 0 0 1-.141-.166zm6.52 0a.67.67 0 0 1-.141.166l-.033.028a2.12 2.12 0 0 1-.407.246c-.188.09-.382.164-.525.213V8.86a.148.148 0 0 0 .004-.022.133.133 0 0 0-.014-.086c.68-.213.97-.432 1.082-.517l.018-.014.015-.01zm3.943.024h.015c.027.003.05.017.067.037.02.025.031.06.027.098a.104.104 0 0 1-.049.076.116.116 0 0 1-.076.017.12.12 0 0 1-.08-.045.108.108 0 0 1-.023-.08.114.114 0 0 1 .042-.078.12.12 0 0 1 .077-.025zm-1.215.03-.045.241.025.006c.015-.064.054-.07.088-.064l.303.058-.022.11c-.01.064-.043.11-.142.09v.019l.287.055.004-.02c-.094-.02-.108-.07-.098-.129l.02-.113.265.043c.03.01.051.021.041.05l-.02.114c-.009.06-.01.112-.144.098l-.004.02.172.034.084-.455-.023-.004c-.01.06-.05.064-.084.059l-.623-.113c-.035-.01-.07-.03-.06-.094l-.024-.006zm-1.77.005c.015 0 .029.003.041.008a.113.113 0 0 1 .075.105.12.12 0 0 1-.116.115.115.115 0 0 1-.113-.115c0-.031.01-.058.03-.078a.113.113 0 0 1 .083-.035zm-11.427.039h.015a.13.13 0 0 1 .078.025.11.11 0 0 1 .041.079.11.11 0 0 1-.021.082.121.121 0 0 1-.082.043h-.008a.114.114 0 0 1-.117-.1.115.115 0 0 1 .088-.127l.006-.002zm3.103.012c-.349 0-.675.161-.691.17l.03.062c.006-.002.488-.24.886-.137l.017-.066a.954.954 0 0 0-.242-.03zm-2.424.021c.1-.004.145.066.166.174l-.29.05c-.055.01-.055 0-.065-.054-.015-.074.019-.142.142-.162a.308.308 0 0 1 .047-.008zm11.445.1a.12.12 0 0 1 .114.115c0 .063-.05.113-.114.113a.11.11 0 0 1-.109-.113v-.002a.116.116 0 0 1 .09-.111.097.097 0 0 1 .02-.002zm-7.947.088c.298.204.714.355.934.426a.098.098 0 0 0-.02.035v.002a.086.086 0 0 0-.004.035c.001.007.005.014.008.021-.225-.07-.526-.183-.726-.322l-.035-.027a.513.513 0 0 1-.157-.17zm6.063 0a.516.516 0 0 1-.155.17l-.037.025c-.2.139-.5.254-.726.324a.078.078 0 0 0 .005-.021.079.079 0 0 0 0-.033l-.001-.004a.107.107 0 0 0-.02-.036c.22-.07.636-.22.934-.425zm4.125.02.021.001a.11.11 0 0 1 .065.037.12.12 0 0 1 .025.096.108.108 0 0 1-.055.076.12.12 0 0 1-.08.014.108.108 0 0 1-.094-.127.118.118 0 0 1 .118-.098zm-14.32.07h.015c.06 0 .114.04.125.1.008.064-.034.119-.102.13h-.006a.11.11 0 0 1-.12-.092.12.12 0 0 1 .017-.088.115.115 0 0 1 .062-.047c.003 0 .006-.003.008-.003zm3.048.07.018.002a.11.11 0 0 1 .097.107c0 .067-.051.12-.115.12s-.113-.053-.113-.12c0-.028.011-.055.03-.074a.113.113 0 0 1 .083-.035zm8.818 0c.052 0 .095.028.112.068a.178.178 0 0 0-.077.145l.002.01a.144.144 0 0 1-.068 0 .114.114 0 0 1-.055-.042.124.124 0 0 1-.023-.072.112.112 0 0 1 .066-.101.107.107 0 0 1 .043-.008zm-6.777.086h.002l.068.02.037.01c.013.002.023.007.035.01.062.018.128.035.196.052l.03.015a.25.25 0 0 1 .017.06.125.125 0 0 0-.01.024h-.035c-.056 0-.117-.003-.174-.013l-.004-.002-.033-.006-.028-.008-.005-.002a.286.286 0 0 1-.079-.041l-.01-.01a.095.095 0 0 1-.029-.055c-.004-.042.014-.05.022-.054zm4.146 0c.008.003.023.011.018.054a.091.091 0 0 1-.027.057l-.008.008-.004.002a.301.301 0 0 1-.078.04h-.004a.511.511 0 0 1-.022.007h-.002a.575.575 0 0 1-.033.008h-.002c-.057.01-.121.014-.177.015h-.032a.124.124 0 0 0-.01-.023V8.94a.254.254 0 0 1 .016-.059c.01-.006.02-.01.031-.015l.194-.051.037-.012.035-.01.068-.02zm2.844.017c.062 0 .113.05.113.11 0 .066-.05.119-.113.119a.108.108 0 0 1-.101-.072c-.005-.012-.005-.026-.006-.04l-.002-.007c0-.038.02-.073.049-.092a.103.103 0 0 1 .035-.014c.008-.002.016-.004.025-.004zm-10.77.036-.025.003c.02.06-.015.085-.054.1l-.657.168-.015-.064c-.015-.06-.023-.098.125-.163l-.006-.021-.203.06.125.485.207-.05-.006-.02c-.163.02-.173-.014-.188-.079l-.02-.064.663-.168c.035-.01.079-.005.094.055l.02-.006-.06-.236zm12.946.029c.01 0 .02.001.03.004a.1.1 0 0 1 .063.04c.02.027.03.063.024.096a.12.12 0 0 1-.06.079.113.113 0 0 1-.08.01.115.115 0 0 1-.071-.05.104.104 0 0 1-.014-.082v-.001a.118.118 0 0 1 .05-.079.102.102 0 0 1 .058-.017zm-4.346.006a.51.51 0 0 1-.111.097c-.04.027-.087.052-.135.075a1.741 1.741 0 0 1-.172.068 2.38 2.38 0 0 1-.258.07.082.082 0 0 0 .016-.025.094.094 0 0 0 .008-.022 3.5 3.5 0 0 0 .652-.263zm-5.49.002c.22.122.485.21.646.26a.105.105 0 0 0 .006.02.1.1 0 0 0 .018.028c0 .002.003.003.004.004a2.743 2.743 0 0 1-.416-.137 1.036 1.036 0 0 1-.149-.08.524.524 0 0 1-.109-.095zm2.744.021c.084 0 .142.02.184.063.085.086.112.288.115.6v.101l-.002-.043-.004-.051c-.024-.29-.091-.446-.277-.541-.068-.035-.117-.02-.147-.002-.125.08-.145.394-.146.568a.142.142 0 0 1-.01-.011l-.025-.035c.023-.35.074-.649.312-.649zm-1.63.006.058.014.181.039c.062.015.122.016.176.017.104.003.164.008.192.063.008.018.01.032.007.047l-.044-.008a6.837 6.837 0 0 1-.489-.104l-.039-.011a.233.233 0 0 1-.033-.014l-.002-.014-.008-.027v-.002zm3.26 0v.002l-.005.027c0 .005-.003.009-.004.014a.69.69 0 0 1-.072.025 6.93 6.93 0 0 1-.492.104l-.043.008a.074.074 0 0 1 .01-.047c.027-.056.087-.06.19-.063a.847.847 0 0 0 .177-.017c.063-.014.124-.026.183-.04l.057-.013zm-8.716.037c.056 0 .107.038.121.094a.12.12 0 0 1-.086.137h-.011c-.061.004-.116-.03-.127-.088a.118.118 0 0 1 .074-.139l.008-.002a.12.12 0 0 1 .021-.002zm11.7.035c.014.077.037.224.02.375a1.69 1.69 0 0 0-.386.184c.056-.17.162-.38.365-.559zm-8.9.006c.061 0 .112.05.112.11l-.001.013a.184.184 0 0 0-.045.078.106.106 0 0 1-.067.028c-.068 0-.115-.062-.115-.12 0-.06.051-.109.115-.109zm6.318.016c.014.008.02.018.021.023v.002a.014.014 0 0 1-.004.012c-.011.014-.038.025-.074.033l-.004.002a.595.595 0 0 1-.03.006l-.034.004-.098.008h-.139a.14.14 0 0 0 .024-.032l.006-.01h.021c.055 0 .123-.002.188-.013l.035-.008c.012-.003.023-.004.035-.008a.45.45 0 0 0 .053-.02zm-4.065.002c.017.007.036.012.055.017l.035.01.033.006c.062.01.126.014.18.014h.033l.004.01h.002a.13.13 0 0 0 .023.03 1.111 1.111 0 0 1-.1 0h-.04a1.374 1.374 0 0 1-.1-.007l-.035-.004a.585.585 0 0 1-.03-.006l-.003-.002c-.035-.008-.061-.017-.072-.031-.003-.004-.006-.008-.004-.014a.043.043 0 0 1 .02-.023zm.399.013a.604.604 0 0 0 .054.02l.018.006.043.011c.09.024.23.054.441.092l.02.008-.016.018-.02-.002a1.92 1.92 0 0 1-.458-.084v-.002a.3.3 0 0 1-.036-.016l-.015-.012-.014-.01a.074.074 0 0 1-.016-.017l-.001-.012zm3.271 0c0 .005-.002.007-.004.01a.071.071 0 0 1-.016.02c-.003.003-.005.007-.01.01-.006.005-.014.008-.023.013a.39.39 0 0 1-.031.016h-.002a1.943 1.943 0 0 1-.455.084l-.023.002-.018-.018a.65.65 0 0 0 .02-.008c.212-.038.352-.068.443-.092l.039-.01.021-.005A.691.691 0 0 0 81.577 9zm-1.709.06c.01 0 .022.002.037.007a.078.078 0 0 0-.043.023c-.08.086-.083.405-.078.569-.018-.009-.036-.016-.053-.026-.002-.208.025-.504.116-.562a.041.041 0 0 1 .021-.01zm-3.974.042.03.006a.115.115 0 0 1 .085.113.11.11 0 0 1-.114.11c-.061 0-.115-.051-.115-.11l.002-.014a.125.125 0 0 1 .045-.08.11.11 0 0 1 .067-.025zm6.55.006a.427.427 0 0 1-.088.074c-.097.065-.23.108-.36.137a2.105 2.105 0 0 1-.106.021l.002-.012a.146.146 0 0 0 .035-.023l.008-.006a.097.097 0 0 0 .023-.043c.13-.027.29-.069.438-.129l.013-.006.035-.013zm-5.003.002.033.013.049.02c.137.052.281.09.4.115a.097.097 0 0 0 .024.041l.007.006a.17.17 0 0 0 .036.023l.001.012a2.479 2.479 0 0 1-.105-.02 1.1 1.1 0 0 1-.361-.136c-.016-.01-.031-.024-.045-.035a.347.347 0 0 1-.04-.04zm.527.015.016.004h.007l.008.002.035.004c.027.003.054.007.082.008h.036l.035.002h.015l.065-.002h.017l.004.006a.13.13 0 0 0 .02.03h-.149a1.557 1.557 0 0 1-.125-.013l-.029-.005a.32.32 0 0 1-.045-.012.134.134 0 0 1-.037-.018l.045-.006zm3.945 0 .041.006a.124.124 0 0 1-.033.018c-.013.005-.03.008-.047.012a.863.863 0 0 1-.154.017h-.15a.123.123 0 0 0 .02-.03l.003-.005h.018l.068.002h.014l.035-.002h.035c.027-.001.054-.003.08-.006.012-.001.024-.004.035-.006l.01-.002.025-.004zm-1.992.008c.024 0 .1.04.104.555a1.005 1.005 0 0 1-.084.027 1.008 1.008 0 0 1-.086-.027c-.007-.2.003-.492.058-.55.005-.006.007-.005.008-.005zm-1.56.002h.008l.007.002h.004l.016.006.05.016c.01.002.02.007.03.01h.004a2.738 2.738 0 0 0 .291.047c.013 0 .025.002.037.003l-.008.01-.006.008a1.36 1.36 0 0 1-.32-.047l-.033-.012a.347.347 0 0 1-.02-.008l-.013-.006a.182.182 0 0 1-.028-.013l-.013-.012-.006-.004zm3.146 0h.008l-.002.002a.225.225 0 0 1-.045.03l-.01.003a.708.708 0 0 1-.02.008l-.032.012a1.355 1.355 0 0 1-.319.047c-.002-.003-.003-.006-.006-.008a.323.323 0 0 0-.007-.01c.012 0 .023-.003.037-.004a2.7 2.7 0 0 0 .289-.047h.006l.029-.007.05-.018.016-.006.006-.002zm-1.482.01c.094.093.13.236.144.473l.002.039.002.039.004.148V9.9l.002.031v.254c0 .011-.004.028-.008.049v.002a.838.838 0 0 1-.008.033c0 .003 0 .007-.002.01-.034.132-.118.338-.22.338-.083 0-.15-.17-.186-.325a.103.103 0 0 0 .055 0 .482.482 0 0 0 .07.202c.022.026.045.033.06.033.06 0 .097-.102.12-.24l.006-.038.004-.027c0-.009 0-.017.002-.025l.006-.053v-.004l.003-.035.004-.053v-.021l.002-.034a1.665 1.665 0 0 0 .004-.101l.002-.043v-.194c-.002-.207-.015-.406-.068-.513zm6.027.006c-.055.003-.099.03-.11.076-.014.06.036.124.12.148.084.02.169-.005.183-.064s-.034-.13-.123-.154a.248.248 0 0 0-.07-.006zm.906.015a.112.112 0 0 1 .098.047c.02.027.03.064.021.098a.122.122 0 0 1-.066.072.125.125 0 0 1-.082.008.104.104 0 0 1-.064-.05.109.109 0 0 1-.014-.085v-.002a.114.114 0 0 1 .055-.074.105.105 0 0 1 .052-.014zm-10.752.006.077.03a.122.122 0 0 1 .037.09c0 .06-.05.107-.11.107-.063 0-.117-.05-.117-.108a.12.12 0 0 1 .113-.119zm1.784.055a.974.974 0 0 0 .123.017c.02.002.04.002.06.002l.008.002h.099l.036-.002h.006l.017-.002a.104.104 0 0 0 .027.053l.004.006-.037.002h-.072l-.041-.002a1.405 1.405 0 0 1-.143-.016l-.015-.003-.022-.008a.152.152 0 0 1-.033-.016l-.004-.004-.006-.004a.03.03 0 0 1-.007-.017.04.04 0 0 1 0-.008zm3.904 0-.002.008c0 .005-.002.01-.006.015v.002l-.006.004-.006.004a.153.153 0 0 1-.033.016l-.018.006-.02.005a.77.77 0 0 1-.116.014l-.031.002-.038.002h-.072l-.037-.002.004-.006a.113.113 0 0 0 .025-.045v-.008l.02.002h.008l.037.002h.094l.007-.002c.02 0 .04 0 .06-.002a.76.76 0 0 0 .085-.01l.045-.007zm-8.957.01a.12.12 0 0 1 .06.017.112.112 0 0 1-.03.207c-.003.002-.005.001-.009.002a.102.102 0 0 1-.068-.008.128.128 0 0 1-.065-.074.12.12 0 0 1 .073-.137l.011-.003a.122.122 0 0 1 .028-.004zm5.47.004h.004l.026.007a.356.356 0 0 0 .025.008c.005.002.01.005.016.006a1.4 1.4 0 0 0 .203.035c.025.003.049.003.068.004a.294.294 0 0 0-.01.02l-.01.025-.029-.004a1.014 1.014 0 0 1-.207-.045l-.021-.008a.217.217 0 0 1-.024-.011l-.011-.008a.085.085 0 0 1-.03-.03zm3.06 0h.003a.068.068 0 0 1-.027.029l-.014.008a.133.133 0 0 1-.024.011l-.021.008a.997.997 0 0 1-.203.045l-.03.004a.443.443 0 0 0-.01-.025l-.007-.02c.02-.001.041-.001.066-.004.06-.006.133-.018.2-.035l.017-.004.024-.008a.426.426 0 0 0 .027-.01zm2.45.039c.061 0 .11.051.11.115 0 .061-.05.113-.11.113a.116.116 0 0 1-.117-.113c0-.064.05-.115.117-.115zm-1.701.047v.001a.61.61 0 0 1-.143.084.91.91 0 0 1-.136.047 1.647 1.647 0 0 1-.16.035.191.191 0 0 0 .035-.033.063.063 0 0 0 .013-.04l.004-.003a2.122 2.122 0 0 0 .387-.091zm-4.549.001c.033.013.066.022.1.032.096.028.196.046.283.058l.006.004c0 .015.006.03.016.041a.168.168 0 0 0 .033.031 1.594 1.594 0 0 1-.287-.078.617.617 0 0 1-.15-.086V9.33zm7.205.006c-.05.118-.195.399-.459.569a.846.846 0 0 1-.564.13l.258-.152.072-.04.106-.065.119-.07.006-.004.097-.057.125-.074.08-.047.008-.031-.012-.016-.029-.008h-.002l-.066.04-.047.027-.05.03-.196.116-.19.111-.07.043-.232.137a1.333 1.333 0 0 1 .332-.344c.107-.079.242-.154.406-.213.012-.004.024-.01.037-.013l.037-.012c.073-.022.15-.042.234-.057zm-9.609.02c.14.054.439.178.743.365.04.1.115.261.234.443a9.75 9.75 0 0 1-.633-.55l-.047.049c.02.018.382.36.63.55a4.443 4.443 0 0 0-.339-.1 2.666 2.666 0 0 1-.588-.757zm2.817.004.052.008c.05.006.104.007.153.007h.035l.035-.002h.025c.017 0 .03 0 .043-.002l.004.01c.004.009.01.015.012.02l-.047.002h-.105a1.085 1.085 0 0 1-.069-.006.443.443 0 0 1-.111-.024.141.141 0 0 1-.027-.013zm3.72 0c-.007.005-.015.007-.025.011a.45.45 0 0 1-.115.026c-.021.002-.042.005-.065.006h-.103a3.56 3.56 0 0 1-.053-.002l.01-.018.006-.013c.014 0 .029.003.046.003h.022l.037.002h.035a1.285 1.285 0 0 0 .205-.015zm-3.298.015c.018.006.038.01.058.014l.04.01c.04.008.079.012.112.015a.33.33 0 0 0-.003.036v.017h-.006c-.013.001-.025.003-.037.002l-.014-.002a.218.218 0 0 1-.053-.012c-.005-.001-.01-.001-.013-.003a.147.147 0 0 1-.022-.012.16.16 0 0 1-.018-.012c-.007-.005-.013-.013-.02-.02l-.009-.011-.002-.002c-.005-.007-.009-.012-.013-.02zm2.873 0c-.005.008-.007.016-.012.022l-.012.014-.017.017-.018.012a.143.143 0 0 1-.022.012l-.01.003a.21.21 0 0 1-.054.012l-.016.002c-.012 0-.025 0-.037-.002h-.006V9.45l-.003-.036a1.318 1.318 0 0 0 .152-.023.57.57 0 0 0 .055-.016zm2.083.012c.066 0 .12.048.12.108a.132.132 0 0 1-.006.035.114.114 0 0 1-.114.084h-.007c-.058-.004-.102-.055-.102-.12 0-.06.05-.107.11-.107zm-5.283.072c.023.004.045.008.069.01.033.003.068.004.101.004h.035l.038-.002.045-.002.007.016.012.013h-.008l-.031.004-.014.002h-.072a.384.384 0 0 1-.182-.045zm3.534 0a.375.375 0 0 1-.184.045h-.008a.538.538 0 0 1-.064-.002h-.02a.154.154 0 0 1-.03-.004h-.001l.006-.01.004-.003a.067.067 0 0 0 .008-.016l.044.002.038.002h.037a1.23 1.23 0 0 0 .17-.014zm5.156.014a.134.134 0 0 1 .049.006.097.097 0 0 1 .056.047l.002.004c.016.03.02.063.01.093a.108.108 0 0 1-.055.065l-.007.004a.108.108 0 0 1-.077.004.124.124 0 0 1-.074-.059.107.107 0 0 1-.008-.082.12.12 0 0 1 .104-.082zm-9.002.035c.055.019.113.034.168.045.047.01.092.016.135.022a.151.151 0 0 0 .013.025.064.064 0 0 0 .012.012.12.12 0 0 0 .045.021c0 .002.003.003.004.004a1.122 1.122 0 0 1-.234-.055.59.59 0 0 1-.11-.052c-.01-.007-.023-.014-.033-.022zm4.154 0a.607.607 0 0 1-.14.074 1.108 1.108 0 0 1-.235.057l.002-.006a.118.118 0 0 0 .041-.021c.005-.004.01-.007.014-.012a.14.14 0 0 0 .013-.023 1.44 1.44 0 0 0 .305-.068zm-.851.026c.011 0 .023.004.035.004h.002l.037-.002c-.002 0-.004 0-.006.002a.185.185 0 0 1-.041.015.084.084 0 0 1-.031 0c0-.002 0-.005.002-.008 0-.003 0-.008.002-.011zm-2.524.002a.393.393 0 0 0 .072 0c.001.003.004.006.004.01l.002.007a.09.09 0 0 1-.03 0 .16.16 0 0 1-.042-.015l-.006-.002zm-5.605.01a.105.105 0 0 1 .103.075v.002a.116.116 0 0 1-.008.092.105.105 0 0 1-.07.05c-.004 0-.006.002-.01.003a.1.1 0 0 1-.07-.006.116.116 0 0 1-.059-.07.114.114 0 0 1 .006-.086.111.111 0 0 1 .057-.049l.012-.006a.111.111 0 0 1 .039-.006zm5.197.011.021.006a.562.562 0 0 0 .073.01l.033.002h-.047a.207.207 0 0 1-.065-.008l-.013-.008-.002-.002zm3.408.002a.028.028 0 0 1-.012.008.195.195 0 0 1-.064.008h-.047l.033-.002a.57.57 0 0 0 .09-.014zm3.961.045-.068.158.02.01c.019-.03.038-.05.077-.035.04.015.119.09.159.119l-.084.207-.11-.01c-.119-.01-.142-.014-.117-.088l-.025-.006-.079.207.02.01c.015-.05.088-.034.143-.03l.736.061.004-.015-.494-.395c-.099-.079-.177-.134-.162-.183l-.02-.01zm-6.998.004c.005.005.012.008.016.012l.013.011.006.004-.002.002c-.007.001-.014 0-.021.002l-.018.004-.039.006h-.004a.9.9 0 0 1-.037.004l-.039.002h-.004l-.054-.002-.036-.004c-.008-.002-.017-.003-.025-.006.035-.002.07-.007.107-.012l.038-.006.035-.005.033-.006.031-.006zm2.672 0 .031.006c.011.002.023.003.033.006l.036.007.035.004c.037.005.073.01.107.012a.277.277 0 0 1-.064.01.362.362 0 0 1-.045.002h-.01l-.037-.002a.955.955 0 0 1-.037-.004h-.002a1.094 1.094 0 0 1-.041-.006l-.02-.004c-.006-.001-.013 0-.02-.002l-.001-.002.006-.004.015-.011a.209.209 0 0 0 .014-.012zm-.143.01h.004l-.006.003.002-.003zm-7.148.017a.22.22 0 0 0-.053.014c-.079.03-.126.098-.107.152.025.064.103.084.182.055.088-.03.133-.104.113-.158-.016-.047-.073-.07-.135-.063zm2.065.014c.493.106.866.366 1.136.642.15.225.314.45.49.674.033.063.058.114.075.153-.225-.125-.853-.745-1.239-1.153l-.025.024-.025.023.02.02.157.166.164.166c.087.087.181.182.278.275a3.456 3.456 0 0 0-.2-.121c-.016-.01-.034-.018-.05-.027l-.053-.028a4.009 4.009 0 0 0-.361-.166l-.022-.027.002-.002a2.548 2.548 0 0 1-.316-.541l-.024-.057-.007-.021zm2.68.039a.29.29 0 0 0 .036.012.726.726 0 0 1-.064.013c-.016.003-.033.004-.049.006a.541.541 0 0 1-.094.002l-.011-.002.043-.006h.007a.418.418 0 0 0 .051-.01l.04-.007.04-.008zm2.421 0 .041.01.04.007.048.008.012.002.04.004-.011.002a.472.472 0 0 1-.094-.002l-.049-.006a1.01 1.01 0 0 1-.066-.013.266.266 0 0 0 .039-.012zm-1.826.002.031.008.004.002c-.025.03-.049.062-.074.091a2.27 2.27 0 0 1-.153.16c-.029.027-.053.043-.066.044-.043.004-.064-.005-.066-.008.11-.08.229-.205.298-.282l.026-.015zm1.23 0 .024.015c.069.077.187.202.299.282-.005.004-.025.012-.07.008a.164.164 0 0 1-.06-.04 1.078 1.078 0 0 1-.054-.052 2.97 2.97 0 0 1-.174-.203l.004-.002a.261.261 0 0 1 .031-.008zm-1.578.015h.006l.018.002h.029a.528.528 0 0 1-.15.057l-.03.004a.253.253 0 0 1-.064-.002c.076-.018.144-.042.191-.06zm1.92 0h.006c.044.017.108.04.178.057l.008.004a.245.245 0 0 1-.06.002c-.008 0-.016-.003-.024-.004a.517.517 0 0 1-.155-.057h.031l.016-.002zm-1.469.028a.424.424 0 0 1 .038.027l-.01.018c-.018.034-.038.07-.059.103a.675.675 0 0 1-.113.147.093.093 0 0 1-.031.02h-.002c-.007.001-.009 0-.012-.003a.08.08 0 0 1-.04-.052v-.01c.077-.07.16-.17.218-.242l.011-.008zm1.024 0 .012.008c.06.077.145.177.218.246l-.002.006c-.003.02-.015.037-.039.052-.002.002-.005.004-.011.002l-.002-.002a.097.097 0 0 1-.032-.02.69.69 0 0 1-.113-.144l-.059-.103-.01-.018c.013-.01.025-.02.038-.027zm3.219 0c.061 0 .113.053.113.117 0 .059-.052.11-.113.11a.113.113 0 0 1-.114-.11c0-.064.052-.117.114-.117zm-3.647.03c0 .046 0 .092-.002.138v.004c0 .023-.002.044-.004.066 0 .024-.002.05-.004.072l-.001.036-.026.025-.004.004-.002-.057c0-.028 0-.055-.002-.078V9.97l-.004-.16v-.033l.05-.016zm6.748.009c.015 0 .03.002.045.008a.103.103 0 0 1 .057.049c.016.028.02.065.01.1a.117.117 0 0 1-.07.066.132.132 0 0 1-.083.001.11.11 0 0 1-.064-.142V9.85a.107.107 0 0 1 .105-.078zm-8.277.006.016.006a.416.416 0 0 0 .127.005l.015-.001c.007.003.015.008.024.011a.717.717 0 0 1-.286.008.611.611 0 0 1-.091-.023l.066.002c.046 0 .09-.005.129-.008zm2.89 0c.04.003.083.008.13.008l.064-.002a.618.618 0 0 1-.38.016.495.495 0 0 0 .024-.012l.02.001a.503.503 0 0 0 .125-.005l.018-.006zm-2.39.021-.055.035a.666.666 0 0 1-.3.096.324.324 0 0 1-.165-.043h.036c.103 0 .197-.02.28-.05a.35.35 0 0 0 .034.001.507.507 0 0 0 .17-.04zm1.892.002a.507.507 0 0 0 .164.037c.012 0 .024 0 .036-.002.083.03.18.051.283.051h.035a.318.318 0 0 1-.162.043h-.002c-.012 0-.025 0-.037-.002a.657.657 0 0 1-.25-.084c-.024-.013-.045-.029-.067-.043zm-1.777.002c-.06.058-.12.108-.17.143-.044.03-.08.049-.103.045l-.055-.014a.85.85 0 0 0 .19-.08c.052-.03.098-.063.138-.094zm.412.006.018.018-.004.02a.897.897 0 0 1-.018.067.455.455 0 0 1-.056.125.125.125 0 0 1-.032.034h-.002c-.013.008-.026.012-.04.007a.2.2 0 0 1-.042-.017 1.08 1.08 0 0 0 .166-.244l.01-.01zm.836 0 .01.01c.041.077.104.182.168.244a.184.184 0 0 1-.041.017.053.053 0 0 1-.045-.007h-.002a.132.132 0 0 1-.031-.034.439.439 0 0 1-.055-.125c-.007-.023-.015-.046-.02-.068l-.003-.02.02-.017zm.416 0c.04.03.088.061.139.09a.85.85 0 0 0 .185.078c-.014.004-.031.01-.052.014-.025.004-.062-.014-.106-.043a1.33 1.33 0 0 1-.166-.139zm-7.636.035a.11.11 0 0 1 .043.008c.028.012.05.036.062.064a.12.12 0 0 1-.066.149l-.016.004a.12.12 0 0 1-.078-.008.11.11 0 0 1-.057-.065.113.113 0 0 1 .004-.09.101.101 0 0 1 .053-.048l.01-.004a.118.118 0 0 1 .045-.01zm6.46.041.008.01.018.02.014.013c-.006.024-.014.046-.02.067a.9.9 0 0 1-.05.126l-.007.008c-.007.01-.014.017-.02.018 0 0-.005-.003-.015-.016a.195.195 0 0 1-.015-.025l-.004-.012a.422.422 0 0 0 .064-.119.989.989 0 0 0 .028-.09zm6.23.006.288.223-.361-.041.074-.182zm-2.648.053.004.002c.063 0 .112.047.112.107 0 .069-.05.12-.116.12s-.113-.051-.113-.12c0-.023.007-.045.02-.062a.115.115 0 0 1 .093-.047zm-2.878.008c.017.052.04.106.072.144l-.004.012c-.007.014-.014.021-.02.027a.039.039 0 0 1-.011.012c-.007 0-.016-.01-.026-.026a.326.326 0 0 1-.02-.039l.003-.015a2.46 2.46 0 0 0 .006-.115zm-.61.039.006.004.023.027.002.002a.802.802 0 0 1-.003.08.314.314 0 0 1-.016.078.068.068 0 0 1-.02.027l-.002.002a.023.023 0 0 1-.013.002c-.004 0-.007-.002-.012-.004l-.02-.01h-.001a.109.109 0 0 1-.03-.019.258.258 0 0 0 .03-.04v-.003a.631.631 0 0 0 .056-.146zm4.84.03-.027.061-.004.01-.006.012a.913.913 0 0 1-.05.088c-.107.183-.29.41-.575.537a1.19 1.19 0 0 1-.578.096 16.004 16.004 0 0 0-.604-.032l.115-.021c.275-.055.59-.125.85-.195.171-.047.318-.094.41-.14a.275.275 0 0 0 .09-.062l-.002-.025v-.006l-.016-.012h-.004l-.027.004h-.002a.455.455 0 0 1-.162.084c-.146.055-.38.12-.672.186l-.357.078-.207.041-.018.004.072-.043c.25-.146.596-.33.85-.387.101-.023.193-.041.281-.058.133-.026.25-.049.358-.082.101-.032.193-.074.285-.137zm2.127.046c.014 0 .028.004.043.01a.106.106 0 0 1 .06.05l.006.01c.013.03.015.063.004.09a.122.122 0 0 1-.154.06.105.105 0 0 1-.063-.058.111.111 0 0 1 .002-.088v-.002a.11.11 0 0 1 .102-.072zm-12.148.015-.211.065.01.02c.177-.035.206.04.255.138.02.045.026.079-.004.104l-.568.271c-.03.024-.075.031-.1-.033l-.023.014.107.218.02-.01c-.025-.054.006-.085.04-.105l.563-.275c.035-.02.074-.026.104.033l.02-.014-.214-.426zm5.279.014.003.004.028.027a.383.383 0 0 1-.008.053.144.144 0 0 1-.012.033c0 .002-.003.005-.004.006l-.005.008c-.003.002-.01.006-.028-.002l-.004-.004a.428.428 0 0 0 .027-.105l.003-.02zm-4.174.037c.047.009.118.023.203.043l.07.018.084.023c.118.034.255.08.4.137l.06.023c.024.01.05.02.075.032.103.045.21.097.317.156l.047.025.045.028a3.017 3.017 0 0 1 .638.498 2.5 2.5 0 0 1 .111.125 2.169 2.169 0 0 1-.136-.012l.013-.053c-.375-.101-1.374-.72-1.384-.726l-.035.058c.039.024.899.557 1.324.71-.456-.066-1.332-.294-1.832-1.085zm-2.365.006a.11.11 0 0 1 .101.07l.002.002a.101.101 0 0 1 .002.082.116.116 0 0 1-.064.065l-.012.004c-.052.017-.111-.01-.14-.065a.112.112 0 0 1 .054-.142.115.115 0 0 1 .057-.016zm6.63.049.004.004-.006.008h-.002l.004-.012zm5.46.062-.104.188.02.01c.039-.07.079-.06.109-.04l.513.282-.713-.137-.003.01.517.547-.537-.301c-.03-.015-.059-.05-.03-.104l-.02-.015-.124.213.026.015c.034-.06.073-.049.103-.029l.553.305c.03.015.059.045.03.11l.02.009.083-.158-.46-.479.653.133.084-.152-.02-.01c-.034.064-.074.048-.103.033l-.553-.305c-.03-.02-.06-.05-.025-.115l-.02-.01zm-5.415.006c.01.005.023.01.037.01l.024.021-.002-.023a.048.048 0 0 0 .008-.002c-.015.111-.034.186-.053.197-.024-.006-.047-.087-.064-.187a.089.089 0 0 0 .02-.004v.02l.03-.032zm-.29.018a.116.116 0 0 0 .038.008h.008c.032.146.109.404.258.404.11 0 .189-.12.238-.242-.049.211-.128.261-.238.261-.225 0-.296-.285-.297-.29a.841.841 0 0 1-.008-.141zm6.9.086c.017 0 .034.004.05.011a.1.1 0 0 1 .051.053l.002.006a.123.123 0 0 1-.002.094.108.108 0 0 1-.074.058.12.12 0 0 1-.08-.007.1.1 0 0 1-.059-.057.113.113 0 0 1 .004-.09.114.114 0 0 1 .065-.06.123.123 0 0 1 .043-.008zm-13.153.066a.106.106 0 0 1 .098.066h.002a.114.114 0 0 1-.069.159.111.111 0 0 1-.072 0 .124.124 0 0 1-.07-.063.117.117 0 0 1 .06-.148.107.107 0 0 1 .051-.014zm1.38.16-.015.016c.025.035-.026.094-.06.139l-.473.562.004.01.608-.178c.123-.034.213-.063.248-.023l.02-.012-.095-.148-.02.011c.016.025.026.06-.009.084-.04.025-.149.05-.193.065l-.123-.2.074-.078c.074-.089.092-.104.137-.045l.021-.01-.125-.193zm11.644.059c.015.001.03.006.045.014.022.01.038.028.048.05a.127.127 0 0 1 0 .104.113.113 0 0 1-.082.058.121.121 0 0 1-.074-.007.12.12 0 0 1-.05-.162.115.115 0 0 1 .113-.057zm-12.887.062c.01 0 .02.002.03.004.03.01.056.033.072.065v.002a.1.1 0 0 1 .008.078.115.115 0 0 1-.07.076.12.12 0 0 1-.143-.053.117.117 0 0 1 .054-.158.099.099 0 0 1 .05-.014zm10.252.18-.03.045-.044.068c-.116.168-.3.383-.477.383-.125 0-.292-.053-.469-.107l-.148-.043a2.86 2.86 0 0 0-.1-.028c-.034-.009-.067-.018-.101-.025a1.111 1.111 0 0 0-.22-.025h-.005c.059-.035.135-.076.225-.108.16.046.4.108.619.137.061.008.12.012.176.014l.037.002a.884.884 0 0 0 .096-.006.332.332 0 0 0 .156-.051l.004-.02.002-.011-.012-.016-.008-.002-.023-.004a.316.316 0 0 1-.155.041.566.566 0 0 1-.06.004h-.002c-.21 0-.5-.067-.713-.123a.888.888 0 0 1 .34-.016c.366.06.64-.017.848-.087l.013-.004.045-.016.006-.002zm2.475.037a.11.11 0 0 1 .054.014.11.11 0 0 1 .05.058c.01.033.008.07-.009.102a.107.107 0 0 1-.066.05l-.016.005a.12.12 0 0 1-.074-.018.107.107 0 0 1-.055-.066.112.112 0 0 1 .014-.088v-.002a.116.116 0 0 1 .102-.055zm-11.627.028.11.173-.346.1.236-.273zm10.3.021-.287.385.149.152.015-.02c-.099-.128-.06-.182-.015-.242l.064-.093c.01-.01.035 0 .055.015l.246.182-.074.1c-.035.049-.078.074-.162.015l-.01.014.236.178.01-.014c-.079-.064-.064-.115-.03-.164l.071-.098.22.162c.025.015.026.04.016.065l-.084.11c-.034.049-.11.033-.164.003l-.013.016.148.103.276-.37-.014-.015c-.045.05-.084.039-.113.014l-.504-.375c-.03-.02-.055-.055-.016-.11l-.02-.013zm-11.245.012c.01 0 .02 0 .03.004.03.008.055.03.07.058v.002a.11.11 0 0 1-.04.15l-.017.006a.116.116 0 0 1-.145-.046.118.118 0 0 1 .031-.149l.01-.008a.118.118 0 0 1 .06-.017zm2.916.076c.047 0 .096.031.113.08a.1.1 0 0 1 .004.055.128.128 0 0 1-.117.093.114.114 0 0 1-.11-.115.11.11 0 0 1 .11-.113zm-1.448.103-.013.016c.02.035.014.063 0 .107l-.125.336c-.065-.059-.163-.073-.262.016-.114.089-.114.203-.02.316l.149.178.02-.013c-.04-.05-.02-.085.01-.11l.483-.4c.025-.03.064-.046.104.004l.025-.014-.158-.188-.02.014c.04.05.02.085-.01.11l-.218.183-.033-.035.162-.41-.094-.11zm10.916.034a.128.128 0 0 1 .09.017c.02.011.033.03.041.053.002.004.005.009.006.014a.117.117 0 0 1-.176.127.116.116 0 0 1-.033-.16.115.115 0 0 1 .072-.051zm-9.263.011c.781.016 1.303.33 1.465.442l-.059.017v-.039c-.114 0-.791-.177-1.043-.246l-.02.067c.032.008.673.183.954.234l.023.004c-.037.008-.073.016-.11.021-.743.113-1.108-.342-1.21-.5zm-2.955.045a.116.116 0 0 1 .059.213l-.012.006a.12.12 0 0 1-.149-.039.113.113 0 0 1-.014-.088.111.111 0 0 1 .053-.072.118.118 0 0 1 .063-.02zm8.148.006c.022.03.08.026.256.006l.394.11a7.312 7.312 0 0 1-.502-.028.564.564 0 0 0-.316.072c.038-.043.076-.085.113-.129.02-.011.04-.023.055-.03zm.072.156a.385.385 0 0 1 .07 0c.131.013.366.028.778.034l.223.002c-.024.02-.054.042-.088.068h-.002c-.22.162-.65.411-1.143.318a14.618 14.618 0 0 1-.379-.076l.004-.004.035-.04.02-.02.002.002.094.002.115.001.154-.001c.087-.003.179-.006.27-.012.297-.02.594-.068.773-.166v-.002l.008-.03-.004-.005-.008-.012-.03-.008c-.015.009-.03.018-.048.026a1.02 1.02 0 0 1-.14.048c-.073.02-.154.036-.237.05a3.675 3.675 0 0 1-.35.036 5.92 5.92 0 0 1-.382.012c-.066 0-.12 0-.157-.002.105-.097.259-.207.422-.22zm2.498.036-.162.177.014.016c.045-.045.085-.025.11 0l.206.191-.035.035-.424-.113-.1.098.022.02c.03-.03.06-.024.104-.014l.34.09c-.045.074-.05.167.048.261.104.104.214.089.323-.015l.152-.168-.014-.02c-.04.045-.079.029-.103.004l-.461-.44c-.025-.024-.044-.062-.004-.107l-.016-.015zm1.348.01c.023 0 .047.006.066.019a.106.106 0 0 1 .047.07.116.116 0 0 1-.015.088.124.124 0 0 1-.164.033.123.123 0 0 1-.028-.166.113.113 0 0 1 .094-.045zm-11.89.058a.12.12 0 0 1 .095.045c.034.058.024.127-.023.164a.12.12 0 0 1-.166-.03.122.122 0 0 1 .013-.15l.01-.01a.133.133 0 0 1 .07-.02zm.898.14c.057-.002.108.033.16.088l-.228.192c-.045.04-.05.03-.084-.01-.05-.064-.053-.143.04-.223a.196.196 0 0 1 .112-.046zm.684.024-.174.129.015.014c.148-.085.192-.04.246.005l.084.084c.01.01.002.034-.013.05l-.207.232-.096-.09c-.044-.04-.064-.088 0-.162l-.014-.01-.193.213.016.01c.064-.07.113-.05.158-.016l.094.09-.184.197c-.025.02-.045.025-.064.01l-.104-.094c-.044-.044-.03-.103.01-.168l-.014-.01-.119.133.342.317.02-.02c-.05-.04-.031-.079-.007-.104l.43-.47c.025-.025.06-.045.104 0l.02-.02-.35-.32zm10.119.033a.118.118 0 0 1 .113.08l.006.018a.12.12 0 0 1-.026.09.11.11 0 0 1-.074.043h-.02a.121.121 0 0 1-.066-.026.112.112 0 0 1-.047-.078.109.109 0 0 1 .024-.084h.002a.11.11 0 0 1 .088-.043zm-7.533.026a.502.502 0 0 1 .086.005l.033.008a.445.445 0 0 1 .101.041l.012.014.01.01h-.006l-.033.007-.035.008-.037.008-.04.008-.037.008-.222.047.013.068.194-.041.035-.008.037-.008.082-.017.033-.008.033-.006.028-.006a.233.233 0 0 1-.033.082.163.163 0 0 1-.026.03.156.156 0 0 1-.031.023.267.267 0 0 1-.143.035h-.035c-.01 0-.02-.003-.03-.004a.183.183 0 0 0-.116-.043.18.18 0 0 0-.057.012 1.73 1.73 0 0 1-.23-.084.851.851 0 0 1 .257-.158c.05-.008.103-.018.157-.031zm-3.98.029a.13.13 0 0 1 .097.047.12.12 0 0 1-.03.164l-.009.006a.115.115 0 0 1-.148-.03.114.114 0 0 1-.022-.086.12.12 0 0 1 .03-.064.095.095 0 0 1 .015-.014.107.107 0 0 1 .066-.023zm7.337.09c.063 0 .113.05.113.113a.11.11 0 0 1-.113.113.115.115 0 0 1-.115-.113c0-.06.055-.113.115-.113zm3.215.004.209.209c.05.04.044.044 0 .084-.054.059-.13.074-.219-.02-.104-.089-.074-.174.01-.273zm-.652.05-.202.168.014.014c.054-.044.09-.024.115.006l.408.484c.025.025.041.063-.013.108l.013.021.2-.17-.016-.013c-.054.044-.093.023-.113-.006l-.406-.483c-.03-.024-.044-.065.015-.11l-.015-.019zm1.42.05c.025 0 .052.008.076.027a.11.11 0 0 1 .035.054.12.12 0 0 1-.022.106.113.113 0 0 1-.101.043.111.111 0 0 1-.06-.024c-.052-.047-.06-.12-.018-.164h.002a.114.114 0 0 1 .087-.043zm-11.12.054c.033 0 .064.015.084.04a.12.12 0 0 1-.008.165l-.015.01a.119.119 0 0 1-.15-.026.112.112 0 0 1-.028-.084.118.118 0 0 1 .031-.066l.01-.012a.127.127 0 0 1 .076-.027zm4.037.039c.054.114.12.219.192.262a.655.655 0 0 1 .22.267 3.727 3.727 0 0 1-.423-.424l-.053.045c.027.032.2.227.352.364-.2-.073-.441-.19-.46-.32a.674.674 0 0 1-.003-.135.351.351 0 0 0 .175-.059zm-.384.016a.116.116 0 0 1 .115.113c0 .06-.056.113-.115.113a.117.117 0 0 1-.114-.113c0-.044.027-.082.063-.102a.105.105 0 0 1 .05-.011zm3.345.068a.11.11 0 0 1 .114.113.11.11 0 0 1-.114.11.11.11 0 0 1-.113-.11.11.11 0 0 1 .113-.113zm-5.304.055c-.116.003-.226.077-.319.207-.158.232-.123.424.065.552l.183.13.014-.024c-.054-.035-.04-.076-.02-.106l.356-.517c.03-.03.061-.054.115-.02l.01-.02-.193-.128a.34.34 0 0 0-.211-.074zm9.214.002h.006c.03 0 .056.012.076.033a.122.122 0 0 1 .034.058.119.119 0 0 1-.032.108.098.098 0 0 1-.097.033.14.14 0 0 1-.065-.033.109.109 0 0 1-.004-.156l.002-.004a.11.11 0 0 1 .08-.04zm-10.699.058c.032 0 .062.013.084.037h.002a.116.116 0 0 1-.004.164c-.004.005-.01.007-.015.01a.115.115 0 0 1-.15-.023.11.11 0 0 1-.007-.147l.01-.012a.123.123 0 0 1 .08-.029zm9.076.01a.25.25 0 0 0-.128.043c-.075.044-.113.149-.108.258l.03.013c0-.108.029-.173.103-.222.113-.08.276.04.375.19.128.182.168.36.045.439-.08.054-.189.015-.287-.084l-.02.01.168.232.016-.012c-.03-.104.06-.038.158-.107.148-.099.148-.322.01-.53-.11-.163-.244-.236-.362-.23zm-7.554.002a.24.24 0 0 1 .164.057c.015.01.03.034 0 .074l-.346.498c-.034.05-.04.05-.074.025-.138-.089-.159-.262-.016-.465.084-.117.179-.183.272-.19zm8.965.164c.029 0 .056.01.076.03a.135.135 0 0 1 .033.064.131.131 0 0 1 .002.027.104.104 0 0 1-.035.074.102.102 0 0 1-.074.033c-.009 0-.018-.002-.026-.003a.118.118 0 0 1-.06-.034.1.1 0 0 1-.036-.072.117.117 0 0 1 .038-.088.125.125 0 0 1 .082-.031zm-8.485.03-.128.173.02.01c.113-.119.173-.089.237-.059l.104.05c.015.009.004.034-.006.054l-.139.277-.113-.055c-.05-.03-.083-.07-.039-.164l-.016-.004-.132.262.02.004c.039-.084.093-.077.148-.053l.109.053-.123.242c-.015.025-.035.036-.055.026l-.129-.065c-.054-.024-.054-.094-.029-.158l-.02-.01-.08.162.416.213.01-.02c-.054-.029-.05-.077-.035-.107l.287-.564c.02-.03.048-.06.107-.03l.01-.025-.424-.213zm-1.78.02a.11.11 0 0 1 .08.038l.003.002a.098.098 0 0 1 .033.074.116.116 0 0 1-.033.084.125.125 0 0 1-.164.002.12.12 0 0 1-.012-.148.098.098 0 0 1 .012-.014.107.107 0 0 1 .08-.037zm8.464.02-.162.069.01.025c.03-.015.064-.015.084.02.015.044.023.148.033.203l-.211.093-.07-.084c-.074-.094-.094-.113-.02-.148l-.01-.02-.207.088.01.03c.045-.03.089.034.123.074l.49.549.014-.004-.084-.63c-.02-.123-.035-.216.01-.245l-.01-.02zm1.578.149a.12.12 0 0 1 .082.037.11.11 0 0 1 .026.058.118.118 0 0 1 .002.026.113.113 0 0 1-.041.08.114.114 0 0 1-.104.025.11.11 0 0 1-.055-.033.12.12 0 0 1 .008-.164.113.113 0 0 1 .082-.03zm-9.818.05h.006c.028 0 .054.011.074.03h.002c.023.02.038.049.039.08.001.03-.01.06-.033.082a.1.1 0 0 1-.012.012.116.116 0 0 1-.148-.004.107.107 0 0 1-.04-.076.114.114 0 0 1 .02-.07l.014-.016a.113.113 0 0 1 .078-.038zm2.273.092-.005.02c.059.024.06.065.044.1l-.109.29-.107-.039c-.055-.02-.095-.06-.06-.158l-.015-.006-.109.278.025.004c.03-.09.083-.092.137-.073l.11.04-.094.255c-.01.025-.02.04-.049.03l-.11-.04c-.059-.02-.113-.028-.074-.162l-.02-.01-.064.172.44.159.01-.02c-.065-.025-.06-.065-.05-.1l.223-.591c.01-.035.035-.065.094-.045l.01-.02-.227-.084zm7.313.069c.03.003.056.017.076.043a.11.11 0 0 1 .027.056.127.127 0 0 1-.035.106.136.136 0 0 1-.117.021.098.098 0 0 1-.05-.035c-.04-.053-.037-.12.01-.164a.12.12 0 0 1 .089-.027zm-1.37.005.05.356-.239-.272.19-.084zm-7.97.043a.12.12 0 0 1 .072.024.126.126 0 0 1 .016.164c-.005.006-.01.009-.016.014a.117.117 0 0 1-.066.029.103.103 0 0 1-.078-.03.106.106 0 0 1-.045-.074.117.117 0 0 1 .013-.072l.012-.015a.124.124 0 0 1 .092-.04zm7.09.13-.133.173-.197-.074.113.174-.13.172.204-.059.123.172.006-.207.201-.065-.197-.068.01-.219zm2.01.019a.108.108 0 0 1 .072.047.12.12 0 0 1 .023.06.11.11 0 0 1-.041.1.122.122 0 0 1-.111.018.105.105 0 0 1-.053-.038.117.117 0 0 1 .023-.164.116.116 0 0 1 .086-.023zm-8.858.045a.11.11 0 0 1 .072.027h.002c.05.039.06.111.022.16l-.014.018a.099.099 0 0 1-.056.027.12.12 0 0 1-.092-.027.115.115 0 0 1-.024-.16.108.108 0 0 1 .076-.043l.014-.002zm6.176.09-.168.058.006.026c.024-.01.063-.016.078.023.01.03.014.085.02.11l.04.458-.261-.335c-.015-.02-.084-.099-.094-.124-.01-.024-.007-.048.043-.068l-.01-.02-.21.085.007.023c.044-.02.09.04.139.1l.445.558.01-.006c-.02-.187-.05-.527-.075-.76-.004-.049-.005-.094.04-.109l-.01-.02zm-4.012.025.01.211-.201.074.2.06.013.212.117-.178.207.06-.133-.167.12-.178-.204.074-.129-.168zm.678.03-.006.019c.064.02.07.06.06.094l-.173.611c-.01.035-.034.07-.098.05l-.016.026.204.053.01-.024c-.07-.014-.071-.059-.061-.093l.164-.565.02.717.015.006.41-.623-.174.588c-.01.034-.034.07-.093.054l-.006.02.238.068.004-.023c-.06-.015-.063-.061-.053-.096l.172-.601c.01-.035.03-.07.1-.055l.004-.02-.168-.048-.36.556-.021-.67-.172-.045zm5.742.001.02.002a.112.112 0 0 1 .095.106.12.12 0 0 1 0 .027.117.117 0 0 1-.047.076.116.116 0 0 1-.113.01.111.111 0 0 1-.049-.041.11.11 0 0 1-.02-.086.108.108 0 0 1 .047-.072.112.112 0 0 1 .067-.022zm-8.322.041c.024 0 .046.007.064.02a.116.116 0 0 1 .014.18.12.12 0 0 1-.145.011.121.121 0 0 1-.04-.142.136.136 0 0 1 .013-.024.106.106 0 0 1 .072-.043.155.155 0 0 1 .022-.002zm5.316.125-.207.034.004.025c.015-.005.06-.01.064.03a.241.241 0 0 1-.023.103l-.059.174-.04-.055a.643.643 0 0 1-.12-.182c-.005-.03.006-.04.06-.05l-.005-.026-.256.05.004.02c.06-.005.1.04.193.184l.123.166-.093.248c-.03.09-.054.173-.104.178l.006.025.201-.035-.004-.025c-.054.01-.084-.02-.074-.059a.337.337 0 0 1 .033-.1l.065-.191.103.152c.015.02.055.07.065.1.02.04.01.058-.05.068v.03l.262-.05-.003-.025c-.04.01-.07-.01-.12-.084l-.216-.295.078-.238c.02-.05.05-.138.119-.148l-.006-.024zm2.746.012c.037 0 .073.018.096.05.012.02.017.04.017.061a.122.122 0 0 1-.05.104.122.122 0 0 1-.094.012l-.022-.01a.108.108 0 0 1-.046-.045.101.101 0 0 1-.014-.08.112.112 0 0 1 .053-.074h.002a.108.108 0 0 1 .058-.018zm-7.8.037c.022 0 .045.007.066.02a.115.115 0 0 1 .05.07.11.11 0 0 1-.017.086.108.108 0 0 1-.016.021.115.115 0 0 1-.144.016.103.103 0 0 1-.047-.066.118.118 0 0 1 .016-.096.1.1 0 0 1 .062-.047.112.112 0 0 1 .03-.004zm3.345.008c-.155.01-.274.169-.3.393-.035.276.072.449.245.468.084.01.178-.04.243-.129l-.01-.029c-.07.084-.133.113-.217.104-.148-.015-.189-.216-.164-.39.025-.222.109-.381.252-.366.099.015.153.114.158.258h.02l.035-.282h-.02c-.044.094-.075-.01-.193-.025a.245.245 0 0 0-.049-.002zm1.063.021-.174.01-.162.643-.233-.623-.168.01v.025c.07-.005.084.034.084.068l.035.639c0 .034-.01.073-.08.078v.025l.207-.015v-.02c-.074 0-.088-.034-.088-.074l-.029-.582.252.672h.01l.187-.733.035.62c0 .04-.01.079-.074.084v.02l.242-.01v-.026c-.064.005-.08-.035-.08-.074l-.035-.633c-.005-.035.011-.073.07-.078v-.026zm3.123.096c.009 0 .017.002.027.004a.11.11 0 0 1 .07.055c.01.02.014.04.014.06 0 .04-.02.078-.055.098a.12.12 0 0 1-.115 0 .116.116 0 0 1-.047-.043.11.11 0 0 1-.008-.086.111.111 0 0 1 .055-.068l.002-.002a.105.105 0 0 1 .057-.018zm-7.256.04c.02 0 .04.003.06.013.053.03.07.105.041.16a.095.095 0 0 1-.017.02c-.038.037-.099.048-.143.023a.12.12 0 0 1-.053-.135.1.1 0 0 1 .01-.021.114.114 0 0 1 .102-.06zm6.978.118c.011 0 .024.002.035.006a.11.11 0 0 1 .065.055c.012.02.014.042.014.058l-.004.022a.12.12 0 0 1-.057.074.118.118 0 0 1-.117-.004.132.132 0 0 1-.043-.045.112.112 0 0 1 .053-.15l.002-.002a.108.108 0 0 1 .052-.014zm-6.7.032c.018 0 .037.003.056.011.056.031.075.1.049.16a.124.124 0 0 1-.162.047.109.109 0 0 1-.053-.064.11.11 0 0 1 .01-.094.107.107 0 0 1 .1-.06zm6.413.107c.042 0 .083.025.104.068a.108.108 0 0 1 .006.086.112.112 0 0 1-.061.065.112.112 0 0 1-.113-.008.118.118 0 0 1 .02-.201.106.106 0 0 1 .044-.01zm-6.129.03a.09.09 0 0 1 .043.01.12.12 0 0 1 .063.155.1.1 0 0 1-.016.026.123.123 0 0 1-.14.027.111.111 0 0 1-.06-.062.104.104 0 0 1-.001-.059h-.002a.109.109 0 0 1 .01-.025.122.122 0 0 1 .068-.067.097.097 0 0 1 .035-.006zm5.842.1a.112.112 0 0 1 .103.077.08.08 0 0 1 .01.05.099.099 0 0 1-.004.022.13.13 0 0 1-.068.075.101.101 0 0 1-.113-.02.13.13 0 0 1-.034-.049c-.025-.054.001-.118.06-.146a.127.127 0 0 1 .046-.008zm-5.553.03a.117.117 0 0 1 .11.072.102.102 0 0 1-.002.084.11.11 0 0 1-.016.028.11.11 0 0 1-.047.037.126.126 0 0 1-.092 0 .107.107 0 0 1-.058-.063.132.132 0 0 1-.008-.06.106.106 0 0 1 .068-.088.124.124 0 0 1 .045-.01zm5.26.086a.11.11 0 0 1 .047.01.11.11 0 0 1 .056.068c.01.02.01.037.008.053a.11.11 0 0 1-.006.027.127.127 0 0 1-.072.067.103.103 0 0 1-.111-.024.127.127 0 0 1-.032-.047.118.118 0 0 1 .07-.148.106.106 0 0 1 .04-.006zm-4.967.024a.12.12 0 0 1 .115.156.121.121 0 0 1-.015.03.118.118 0 0 1-.137.04.114.114 0 0 1-.072-.117.13.13 0 0 1 .007-.035.102.102 0 0 1 .055-.063.105.105 0 0 1 .047-.011zm4.666.078c.017 0 .033.003.049.011a.12.12 0 0 1 .058.077.092.092 0 0 1 .006.048.105.105 0 0 1-.008.028.117.117 0 0 1-.07.06.116.116 0 0 1-.115-.027.11.11 0 0 1-.024-.13.118.118 0 0 1 .07-.063h.003a.097.097 0 0 1 .031-.004zm-4.365.023c.011 0 .022.002.033.006.067.023.101.084.082.144a.102.102 0 0 1-.015.03.122.122 0 0 1-.133.043.114.114 0 0 1-.078-.11c0-.01.002-.02.005-.03a.115.115 0 0 1 .055-.071.111.111 0 0 1 .05-.012zm4.076.072a.114.114 0 0 1 .098.135.116.116 0 0 1-.012.035.115.115 0 0 1-.072.055.108.108 0 0 1-.115-.037.148.148 0 0 1-.03-.049c-.016-.063.032-.12.084-.135a.125.125 0 0 1 .047-.004zm-3.772.018c.01 0 .021 0 .032.004l.002.002a.11.11 0 0 1 .07.049.115.115 0 0 1-.002.119.11.11 0 0 1-.035.037.127.127 0 0 1-.096.014.109.109 0 0 1-.082-.108c0-.01 0-.021.002-.031a.124.124 0 0 1 .11-.086zm3.455.057a.1.1 0 0 1 .055.015.116.116 0 0 1 .049.125.122.122 0 0 1-.088.088.113.113 0 0 1-.113-.043.122.122 0 0 1-.024-.05.1.1 0 0 1 .014-.08.118.118 0 0 1 .078-.052h.002a.122.122 0 0 1 .027-.003zm-3.144.015c.008 0 .016 0 .023.002a.12.12 0 0 1 .075.05.11.11 0 0 1 .013.089.115.115 0 0 1-.011.031.105.105 0 0 1-.036.041.112.112 0 0 1-.09.014.11.11 0 0 1-.087-.102c-.001-.011-.002-.021 0-.033a.121.121 0 0 1 .113-.092zm2.828.045c.023 0 .048.008.067.022a.105.105 0 0 1 .042.076.108.108 0 0 1-.092.133.11.11 0 0 1-.083-.018.124.124 0 0 1-.032-.031.108.108 0 0 1-.017-.041.12.12 0 0 1 .115-.14zm-2.521.016c.006 0 .013 0 .02.002h.001a.115.115 0 0 1 .1.133.121.121 0 0 1-.14.09.098.098 0 0 1-.07-.042.11.11 0 0 1-.019-.052.12.12 0 0 1 .049-.113.101.101 0 0 1 .059-.018zm2.209.035c.024 0 .047.008.066.023.024.02.04.048.045.084a.114.114 0 0 1-.02.078.112.112 0 0 1-.076.045.121.121 0 0 1-.115-.056.115.115 0 0 1-.02-.043.114.114 0 0 1 .026-.084.116.116 0 0 1 .078-.045h.002l.014-.002zm-1.895.01.014.002a.118.118 0 0 1 .08.043.116.116 0 0 1 .014.12.117.117 0 0 1-.12.065.111.111 0 0 1-.097-.092.114.114 0 0 1 .11-.139zm1.572.025h.006c.057 0 .108.049.115.107a.111.111 0 0 1-.104.121.113.113 0 0 1-.112-.058.12.12 0 0 1-.012-.045.11.11 0 0 1 .025-.084c.02-.024.05-.04.082-.04zm-1.246.006h.006c.06.008.105.066.102.127a.119.119 0 0 1-.125.105.12.12 0 0 1-.08-.04.103.103 0 0 1-.022-.046.119.119 0 0 1-.002-.04c.004-.06.06-.106.121-.106zm.934.016a.12.12 0 0 1 .117.115.115.115 0 0 1-.105.117.121.121 0 0 1-.09-.031.098.098 0 0 1-.024-.037.111.111 0 0 1-.01-.043.114.114 0 0 1 .03-.082.118.118 0 0 1 .082-.04zm-.623.003h.008a.118.118 0 0 1 .105.122.12.12 0 0 1-.037.078.11.11 0 0 1-.082.029.11.11 0 0 1-.08-.035.102.102 0 0 1-.024-.043.11.11 0 0 1-.005-.041.114.114 0 0 1 .115-.11zm.31.006c.064 0 .114.05.114.118a.126.126 0 0 1-.113.12c-.047-.001-.087-.036-.102-.081a.132.132 0 0 1-.008-.04c0-.065.05-.117.11-.117z"/></svg>