<svg xmlns="http://www.w3.org/2000/svg" viewBox="0 0 100 14.889"><path d="M79.942.2a7.244 7.244 0 0 0-7.244 7.245 7.244 7.244 0 0 0 7.244 7.244 7.244 7.244 0 0 0 7.244-7.244A7.244 7.244 0 0 0 79.942.2M28.823.57c-3.766 0-6.06 2.553-6.06 6.763s2.322 6.987 6.06 6.987c3.766 0 5.126-2.268 5.45-4.813h-2.83c-.25 1.397-1.158 2.592-2.704 2.592-1.869 0-3.007-1.397-3.007-4.729 0-3.303 1.138-4.58 3.007-4.58 1.546 0 2.454 1 2.703 2.397h2.83C34.005 2.559 31.84.57 28.824.57zm51.119.023c3.774 0 6.85 3.077 6.85 6.852s-3.076 6.85-6.85 6.85c-3.775 0-6.85-3.076-6.85-6.85S76.167.593 79.942.593M.047.753v13.381h2.718V8.581h5.526v-2.21H2.765V3.01h6.377L9.15.753zm10.833 0V3.16h4.045v10.974h2.711V3.16h3.951V.753zm29.953 0v8.19c0 3.331 1.436 5.377 5.35 5.377 3.895 0 5.357-2.036 5.357-5.284V.753h-2.73v8.393c0 2.017-1.091 2.879-2.627 2.879-1.546 0-2.602-.88-2.602-2.88V.754zm13.4 0v13.381h2.692V4.927l6.357 9.207h2.434V.754h-2.702v8.855L56.907.753zm14.47 0v13.381h2.694V.754zm19.766 0v13.381h2.693V4.927l6.356 9.207h2.433V.754H97.25v8.855L91.143.753zm-8.527.746-.111.079q-.431.3-.848.558a5.36 5.36 0 0 0-2.461 1.135 3 3 0 0 1-.97.101l-.2-.015-.012.2q-.03.564-.013 1.093a5.4 5.4 0 0 0-.776 2.795 5.377 5.377 0 0 0 4.98 5.375q.155.122.292.226l.119.092.119-.092.291-.226a5.38 5.38 0 0 0 4.983-5.375 5.4 5.4 0 0 0-.778-2.797q.017-.528-.013-1.092l-.012-.2-.2.016a3 3 0 0 1-.968-.101 5.36 5.36 0 0 0-2.46-1.133q-.416-.259-.849-.56zm0 .41c1.578 1.087 3.028 1.776 4.238 1.77.223 5.19-2.745 7.854-4.238 9.008-1.494-1.154-4.461-3.818-4.238-9.008 1.21.006 2.66-.683 4.238-1.77m-.035 1.212v.316l-.188.156-.013.717-1.754.182V4.49s-.007-.062-.032-.084l-.002-.002h-.001L77.9 4.4h-.004l-.002.002-.006.002-.004.004-.004.004c-.02.026-.023.087-.023.087l-.133.014-.002.068.102.016c-.23.653-.39 1.16-.57 1.713h-.067s.085.523.729.518c.616-.005.687-.518.687-.518h-.059l-.548-1.686 1.697.27-.045 2.127c0 .174-.343.151-.627.164-.023.172-.08.551-.008.621h1.854c.073-.07.012-.449-.01-.621-.284-.013-.627.01-.627-.164l-.045-2.127 1.672-.264-.547 1.68h-.06s.07.513.687.518c.643.005.73-.518.73-.518H82.6c-.181-.552-.34-1.058-.568-1.709l.125-.02-.002-.068-.158-.016a.2.2 0 0 0-.024-.085l-.004-.004v-.002l-.006-.004-.006-.002h-.007q-.007.001-.01.004l-.006.004c-.024.02-.03.074-.031.08l-1.727-.178c-.004-.234-.009-.44-.013-.717l-.188-.156V3.12h-.035zm-2.065 1.84c.006.45.012.9.03 1.349h-.487zm4.17 0 .46 1.349h-.49c.019-.448.025-.899.03-1.35m-4.035.099c.151.425.325.836.494 1.25h-.529q.03-.625.035-1.25m3.9 0q.006.625.035 1.25h-.529c.17-.414.343-.825.494-1.25m-5.363 2.795-.053.037c.002.006.039.118.168.244l-.011.01c.03.115.12.223.24.32.014.124.117.235.258.33.033.106.127.191.248.26a.42.42 0 0 0 .19.205.46.46 0 0 0 .194.182.4.4 0 0 0 .163.154.44.44 0 0 0 .203.14.7.7 0 0 0 .26.128l.001.002q.123.128.293.128h.002l.028-.002c.02.025.067.043.154.061h.016q.046-.001.105-.035.026.04.098.04l.029-.001q.027-.002.066-.03.019.041.06.069.022.015.046.016a.1.1 0 0 0 .043-.012.2.2 0 0 0 .113.045.1.1 0 0 0 .049-.012q.039.076.09.076h.004l.02.022c0 .092.002.168.009.193.019.089.127.342.363.342.194 0 .292-.135.336-.514a.15.15 0 0 0 .055-.043h.006q.05 0 .09-.074a.12.12 0 0 0 .084.004.2.2 0 0 0 .078-.04q.01.006.02.009l.023.004a.1.1 0 0 0 .045-.016.15.15 0 0 0 .058-.066.13.13 0 0 0 .06.027l.034.002q.075-.001.101-.041a.23.23 0 0 0 .106.035h.018c.086-.018.131-.036.15-.06l.03.001h.001a.4.4 0 0 0 .293-.128l.002-.004a.7.7 0 0 0 .252-.121.44.44 0 0 0 .213-.147.43.43 0 0 0 .16-.152.46.46 0 0 0 .195-.184.4.4 0 0 0 .19-.205c.12-.068.212-.153.246-.258.14-.095.245-.206.26-.33.12-.097.21-.204.24-.32l-.012-.01a1 1 0 0 0 .086-.1l.06-.156-.036-.025c-.453.356-1.059.618-1.801.781l-.059.014a2 2 0 0 1-.332.047c-.159.014-.322.029-.433.072-.12.046-.154.12-.163.174-.021.138.107.296.223.39a.08.08 0 0 1 .03.057v.008l-.003.002-.003.006h-.002v.002l-.004.001c-.032.022-.122.035-.313-.021-.085-.025-.161.024-.219.08-.006-.293-.04-.47-.132-.564-.055-.056-.13-.082-.233-.082-.29 0-.35.344-.373.638-.055-.052-.13-.096-.21-.072-.198.058-.29.04-.32.018l-.005-.006v-.002l-.002-.006c-.003-.017.007-.042.027-.059.117-.092.245-.247.225-.388-.008-.054-.042-.13-.16-.176-.114-.043-.28-.058-.438-.072a2.4 2.4 0 0 1-.332-.047l-.062-.014c-.74-.165-1.347-.428-1.799-.781"/></svg>