<svg xmlns="http://www.w3.org/2000/svg" viewBox="0 0 100 14.889"><path d="M79.943.201a7.245 7.245 0 1 0-.003 14.49A7.245 7.245 0 0 0 79.943.2zm-51.119.37c-3.766 0-6.06 2.553-6.06 6.763s2.322 6.986 6.06 6.986c3.766 0 5.125-2.267 5.45-4.812h-2.83c-.25 1.397-1.159 2.592-2.704 2.592-1.87 0-3.008-1.398-3.008-4.729 0-3.303 1.139-4.58 3.008-4.58 1.545 0 2.453 1 2.703 2.397h2.83C34.005 2.56 31.841.57 28.824.57m51.119.023c3.774 0 6.85 3.077 6.85 6.851s-3.076 6.85-6.85 6.85-6.85-3.075-6.85-6.85 3.077-6.85 6.85-6.85M.047.754v13.38h2.719V8.583H8.29v-2.21H2.766v-3.36h6.377L9.15.754zm10.834 0V3.16h4.045v10.975h2.71V3.16h3.952V.754zm29.953 0v8.19c0 3.33 1.435 5.376 5.35 5.376 3.895 0 5.357-2.035 5.357-5.283V.754h-2.73v8.392c0 2.018-1.091 2.88-2.627 2.88-1.546 0-2.602-.88-2.602-2.88V.754zm13.4 0v13.38h2.691V4.929l6.358 9.207h2.433V.754h-2.7v8.855L56.907.754zm14.471 0v13.38h2.693V.755zm19.766 0v13.38h2.693V4.929l6.356 9.207h2.434V.754h-2.702v8.855L91.145.754zm-8.527.746-.112.078q-.431.3-.847.559a5.36 5.36 0 0 0-2.461 1.135 3 3 0 0 1-.97.101l-.2-.016-.012.2q-.03.565-.014 1.093a5.4 5.4 0 0 0-.775 2.795 5.377 5.377 0 0 0 4.98 5.375q.155.123.292.227l.119.092.119-.092q.136-.105.29-.227a5.38 5.38 0 0 0 4.983-5.375 5.4 5.4 0 0 0-.777-2.797q.017-.527-.014-1.091l-.011-.2-.2.016a3 3 0 0 1-.968-.102 5.36 5.36 0 0 0-2.46-1.132q-.417-.259-.849-.56zm0 .41c1.578 1.087 3.028 1.776 4.238 1.77.223 5.19-2.745 7.854-4.238 9.007-1.494-1.153-4.461-3.818-4.239-9.007 1.21.006 2.661-.684 4.239-1.77m-.035 1.211v.316l-.188.157-.014.717-1.754.181V4.49s-.006-.061-.03-.084l-.003-.002h-.002l-.015-.004h-.004l-.002.002-.006.002-.004.004-.004.004a.2.2 0 0 0-.024.088l-.132.014-.002.068.101.016c-.23.653-.389 1.16-.57 1.713h-.067s.086.522.729.517c.616-.005.687-.517.687-.517h-.058l-.549-1.686 1.697.27-.045 2.126c0 .174-.343.152-.627.165-.022.172-.08.55-.007.62h1.853c.073-.07.013-.448-.01-.62-.283-.013-.627.01-.627-.165l-.045-2.126 1.672-.264-.547 1.68h-.06s.071.512.687.517c.644.005.73-.517.73-.517h-.067c-.182-.552-.34-1.059-.569-1.71l.125-.019-.002-.068-.158-.016a.2.2 0 0 0-.023-.086l-.002-.002h-.002v-.004l-.006-.004-.006-.002h-.01l-.008.004-.006.004c-.024.02-.03.074-.031.08l-1.727-.177-.013-.717-.188-.156V3.12h-.035zm-2.065 1.84c.006.45.011.901.03 1.35h-.487zm4.17 0 .459 1.35h-.488c.018-.449.023-.9.029-1.35m-4.035.1c.151.424.325.835.494 1.25h-.53q.032-.626.036-1.25m3.9 0q.005.624.036 1.25h-.53c.17-.415.343-.826.494-1.25M76.424 7.85c.039.315 1.07 1.445 1.633 1.863.2.148.638.295.908.33s.495.085.643.184c-.033.271.149.521.35.523.205.002.313-.14.373-.495.22-.142.404-.176.61-.195.27-.025.41.032.826-.265.983-.7 1.943-1.954 1.746-1.984-.028-.004-.193.12-.265.175-.561.372-1.53.67-2.303.717-.088.005-.28.086-.289.215a.36.36 0 0 0 .074.234c.084.121.193.172.182.23-.01.056-.206.026-.329-.011-.13-.04-.224.083-.224.083s-.008-.092-.01-.14c-.011-.51-.247-.52-.36-.52-.347 0-.366.492-.381.651-.048-.044-.124-.104-.221-.073-.159.05-.498.086-.222-.122.07-.053.157-.2.157-.303 0-.11-.082-.23-.315-.245-.435-.028-1.662-.218-2.528-.89z"/></svg>