<svg xmlns="http://www.w3.org/2000/svg" viewBox="0 0 100 14.889"><path fill="#fff" d="M79.928.2a7.244 7.244 0 0 0-7.244 7.244 7.244 7.244 0 0 0 7.244 7.244 7.244 7.244 0 0 0 7.244-7.244A7.244 7.244 0 0 0 79.928.2M28.823.57c-3.766 0-6.06 2.554-6.06 6.764s2.322 6.987 6.06 6.987c3.766 0 5.125-2.269 5.449-4.813h-2.83c-.25 1.397-1.158 2.592-2.703 2.592-1.869 0-3.007-1.397-3.007-4.728 0-3.304 1.138-4.581 3.007-4.581 1.545 0 2.453.999 2.703 2.396h2.83C34.004 2.56 31.84.57 28.823.57m14.758.184h-2.747v8.19c0 3.331 1.435 5.377 5.35 5.377 3.895 0 5.357-2.036 5.357-5.284V.754h-2.73v8.393c0 2.017-1.092 2.878-2.628 2.878-1.545 0-2.602-.88-2.602-2.878zM.047.754v13.38h2.719v-5.55H8.29V6.37H2.766V3.01h6.376L9.15.754zm10.834 0V3.16h4.045v10.975h2.711V3.16h3.95V.755zm43.353 0v13.38h2.692V4.929l6.357 9.207h2.433V.755h-2.7V9.61L56.907.755zm14.471 0v13.38h2.693V.755zm19.765 0v13.38h2.694V4.929l6.356 9.207h2.433V.755h-2.702V9.61L91.145.755zm-8.542.746.113.078q.432.301.85.56a5.36 5.36 0 0 1 2.458 1.133q.53.134.97.102l.198-.016.012.2q.03.563.013 1.09c.494.815.778 1.772.778 2.797a5.38 5.38 0 0 1-4.983 5.376q-.155.123-.29.226l-.12.092-.118-.092q-.136-.103-.291-.226a5.377 5.377 0 0 1-4.98-5.376c0-1.024.282-1.98.775-2.794q-.018-.528.013-1.094l.012-.199.199.016c.291.023.618-.014.97-.102a5.36 5.36 0 0 1 2.462-1.135q.416-.258.848-.558zm0 .41c-1.578 1.085-3.029 1.774-4.238 1.768-.223 5.19 2.744 7.856 4.238 9.01 1.493-1.154 4.46-3.82 4.237-9.01-1.21.006-2.66-.682-4.238-1.769m-.036 1.21h.067v.317l.19.157c.004.277.009.482.013.716l1.726.178c0-.006.007-.06.032-.08l.002-.003.004-.001.002-.001.004-.003.002-.001h.01l.006.002v.002l.007.002v.004l.003.003c.018.025.022.079.023.085l.158.015.004.07-.126.019c.23.65.387 1.157.568 1.709h.07s-.089.522-.732.517c-.616-.005-.687-.517-.687-.517h.061l.547-1.68-1.672.264.044 2.127c0 .173.344.151.627.164.023.172.083.55.01.62h-1.852c-.073-.07-.015-.448.008-.62.283-.013.627.01.627-.164l.044-2.127-1.697-.27.55 1.686h.057s-.071.512-.687.517c-.643.005-.73-.517-.73-.517h.068c.181-.553.34-1.061.57-1.714l-.102-.015.002-.069.133-.013s.004-.06.024-.087v-.003l.003-.002.005-.004.006-.002.002-.002h.003q.009 0 .016.004h.003v.002c.026.022.033.084.033.084v.002l1.753-.182.013-.716.188-.157zm-2.064 1.84-.458 1.35h.487c-.018-.448-.023-.9-.03-1.35m4.17 0c-.006.45-.012.902-.03 1.35h.49zm-4.036.1q-.005.624-.035 1.25h.53c-.169-.414-.343-.826-.494-1.25m3.901 0c-.151.424-.325.836-.493 1.25h.528q-.029-.626-.035-1.25m1.629 2.75h.003l.002.001c.197.03-.763 1.284-1.746 1.984-.416.297-.557.239-.827.264a1.2 1.2 0 0 0-.608.195c-.06.355-.169.497-.375.495-.2-.001-.383-.252-.35-.522-.147-.1-.37-.15-.641-.185-.27-.035-.71-.182-.91-.33-.563-.417-1.593-1.548-1.631-1.864l.054-.037c.866.673 2.094.863 2.529.89.233.016.314.135.314.245a.47.47 0 0 1-.157.304c-.276.208.063.171.222.12.097-.03.173.03.22.074.015-.16.036-.651.382-.65.114 0 .35.009.361.52.001.048.009.14.009.14s.095-.122.224-.083c.124.037.318.066.328.01.011-.057-.097-.109-.182-.23a.36.36 0 0 1-.073-.234c.008-.13.201-.21.29-.215.772-.048 1.74-.344 2.302-.717.069-.052.222-.168.26-.175"/></svg>