<svg xmlns="http://www.w3.org/2000/svg" xmlns:xlink="http://www.w3.org/1999/xlink" viewBox="0 0 100 14.89"><path d="M28.82.57c-3.76 0-6.06 2.55-6.06 6.76s2.33 6.99 6.06 6.99c3.77 0 5.13-2.27 5.45-4.81h-2.83c-.25 1.4-1.15 2.59-2.7 2.59-1.87 0-3-1.4-3-4.73 0-3.3 1.13-4.58 3-4.58 1.55 0 2.45 1 2.7 2.4h2.83C34 2.56 31.84.57 28.82.57zM.05.75v13.38h2.71V8.58H8.3v-2.2H2.76V3h6.38V.75zm10.83 0v2.41h4.04v10.97h2.71V3.16h3.96V.76zm29.95 0v8.2c0 3.32 1.44 5.37 5.35 5.37 3.9 0 5.36-2.04 5.36-5.28V.75h-2.73v8.4c0 2.01-1.1 2.87-2.63 2.87-1.54 0-2.6-.88-2.6-2.88V.75h-2.75zm13.4 0v13.38h2.7v-9.2l6.35 9.2h2.43V.75h-2.7v8.86L56.91.75h-2.68zm14.47 0v13.38h2.7V.75h-2.7zm19.77 0v13.38h2.7v-9.2l6.35 9.2h2.43V.75h-2.7v8.86L91.15.75h-2.68z"/><use transform="matrix(.04963 0 0 .04963 72.499 0)" href="ftc-logo-svgo.svg#seal" xlink:href="ftc-logo-svgo.svg#seal"/></svg>
